<svg xmlns="http://www.w3.org/2000/svg" xmlns:xlink="http://www.w3.org/1999/xlink" width="400" zoomAndPan="magnify" viewBox="0 0 300 299.999988" height="400" preserveAspectRatio="xMidYMid meet" version="1.0"><defs><g/><clipPath id="c2ccb3a766"><path d="M 0 74.214844 L 86 74.214844 L 86 194.214844 L 0 194.214844 Z M 0 74.214844 " clip-rule="nonzero"/></clipPath></defs><g clip-path="url(#c2ccb3a766)"><path fill="#840104" d="M 85.953125 194.214844 L 56.691406 194.214844 L 17.417969 154.945312 L 17.417969 100.386719 L 38.109375 121.078125 L 38.109375 146.378906 L 39.277344 147.546875 C 42.210938 146.195312 44.910156 144.328125 47.261719 141.976562 C 52.46875 136.769531 55.339844 129.84375 55.339844 122.480469 C 55.339844 115.113281 52.472656 108.1875 47.261719 102.980469 C 42.054688 97.773438 35.128906 94.902344 27.761719 94.902344 C 23.257812 94.902344 18.917969 95.980469 15.035156 98.003906 L 0.015625 82.980469 C 2.808594 81.015625 5.800781 79.351562 8.976562 78.011719 C 14.929688 75.492188 21.253906 74.214844 27.765625 74.214844 C 34.277344 74.214844 40.597656 75.492188 46.554688 78.011719 C 52.304688 80.441406 57.464844 83.921875 61.894531 88.347656 C 66.324219 92.777344 69.800781 97.9375 72.234375 103.6875 C 74.753906 109.644531 76.03125 115.96875 76.03125 122.480469 C 76.03125 128.988281 74.753906 135.3125 72.234375 141.269531 C 69.800781 147.019531 66.324219 152.175781 61.894531 156.609375 C 59.601562 158.902344 57.109375 160.941406 54.445312 162.710938 Z M 17.417969 194.214844 L 44.691406 194.214844 L 17.417969 166.941406 Z M 17.417969 194.214844 " fill-opacity="1" fill-rule="nonzero"/></g><g fill="#000000" fill-opacity="1"><g transform="translate(84.856098, 182.330772)"><g><path d="M 14.839844 -46.433594 C 19.703125 -46.433594 23.386719 -45.078125 25.898438 -42.375 C 28.359375 -39.71875 29.59375 -36.335938 29.59375 -32.226562 L 29.59375 -23.59375 L 13.902344 -23.59375 L 13.902344 -34.347656 C 13.902344 -34.605469 13.886719 -34.8125 13.851562 -34.96875 C 13.839844 -35.007812 13.832031 -35.035156 13.828125 -35.054688 C 13.832031 -35.039062 13.84375 -35.019531 13.859375 -34.996094 C 13.976562 -34.816406 14.121094 -34.695312 14.292969 -34.625 C 14.3125 -34.617188 14.328125 -34.613281 14.339844 -34.609375 L 14.335938 -34.609375 C 14.296875 -34.617188 14.242188 -34.621094 14.175781 -34.621094 C 14.292969 -34.621094 14.425781 -34.667969 14.578125 -34.761719 C 14.75 -34.871094 14.867188 -35 14.929688 -35.148438 C 14.8125 -34.867188 14.75 -34.5625 14.75 -34.226562 L 14.75 -9.027344 C 14.75 -8.691406 14.8125 -8.382812 14.929688 -8.105469 C 14.867188 -8.25 14.75 -8.378906 14.578125 -8.488281 C 14.425781 -8.585938 14.292969 -8.632812 14.175781 -8.632812 C 14.226562 -8.632812 14.261719 -8.632812 14.285156 -8.640625 C 14.261719 -8.632812 14.230469 -8.625 14.191406 -8.605469 C 14.023438 -8.527344 13.886719 -8.402344 13.789062 -8.230469 L 13.789062 -8.238281 C 13.804688 -8.289062 13.820312 -8.355469 13.835938 -8.433594 C 13.878906 -8.667969 13.902344 -8.964844 13.902344 -9.328125 L 13.902344 -20.929688 L 29.59375 -20.929688 L 29.59375 -11.265625 C 29.59375 -8.6875 29.046875 -6.3125 27.960938 -4.132812 C 26.824219 -1.863281 25.097656 -0.0703125 22.777344 1.25 C 20.511719 2.535156 17.785156 3.179688 14.597656 3.179688 C 9.691406 3.179688 5.890625 1.953125 3.195312 -0.5 C 0.4375 -3.011719 -0.9375 -6.902344 -0.9375 -12.175781 L -0.9375 -31.078125 C -0.9375 -36 0.441406 -39.796875 3.207031 -42.464844 C 5.949219 -45.109375 9.828125 -46.433594 14.839844 -46.433594 Z M 14.839844 -41.890625 C 11.050781 -41.890625 8.226562 -40.992188 6.363281 -39.195312 C 4.523438 -37.417969 3.605469 -34.714844 3.605469 -31.078125 L 3.605469 -12.175781 C 3.605469 -8.242188 4.488281 -5.46875 6.253906 -3.859375 C 8.082031 -2.195312 10.863281 -1.363281 14.597656 -1.363281 C 16.984375 -1.363281 18.964844 -1.808594 20.535156 -2.703125 C 22.050781 -3.566406 23.171875 -4.71875 23.894531 -6.164062 C 24.664062 -7.703125 25.046875 -9.402344 25.046875 -11.265625 L 25.046875 -18.65625 L 27.320312 -18.65625 L 27.320312 -16.386719 L 16.175781 -16.386719 L 16.175781 -18.65625 L 18.445312 -18.65625 L 18.445312 -9.328125 C 18.445312 -7.910156 18.203125 -6.78125 17.710938 -5.941406 C 17.332031 -5.289062 16.792969 -4.800781 16.097656 -4.480469 C 15.53125 -4.21875 14.890625 -4.089844 14.175781 -4.089844 C 13.410156 -4.089844 12.730469 -4.277344 12.136719 -4.65625 C 11.519531 -5.046875 11.058594 -5.601562 10.753906 -6.3125 C 10.390625 -7.164062 10.207031 -8.070312 10.207031 -9.027344 L 10.207031 -34.226562 C 10.207031 -35.183594 10.390625 -36.085938 10.753906 -36.9375 C 11.058594 -37.652344 11.519531 -38.203125 12.136719 -38.597656 C 12.730469 -38.972656 13.410156 -39.164062 14.175781 -39.164062 C 15.753906 -39.164062 16.90625 -38.613281 17.640625 -37.515625 C 18.175781 -36.710938 18.445312 -35.652344 18.445312 -34.347656 L 18.445312 -25.867188 L 16.175781 -25.867188 L 16.175781 -28.136719 L 27.320312 -28.136719 L 27.320312 -25.867188 L 25.046875 -25.867188 L 25.046875 -32.226562 C 25.046875 -35.148438 24.222656 -37.5 22.566406 -39.285156 C 20.953125 -41.019531 18.378906 -41.890625 14.839844 -41.890625 Z M 14.839844 -41.890625 "/></g></g></g><g fill="#000000" fill-opacity="1"><g transform="translate(124.71574, 182.330772)"><g><path d="M 12.480469 -10.632812 L 22.140625 -10.632812 L 22.140625 2.273438 L -0.9375 2.273438 L -0.9375 -45.523438 L 14.75 -45.523438 L 14.75 -8.359375 L 12.480469 -8.359375 Z M 10.207031 -6.085938 L 10.207031 -43.253906 L 12.480469 -43.253906 L 12.480469 -40.980469 L 1.332031 -40.980469 L 1.332031 -43.253906 L 3.605469 -43.253906 L 3.605469 0 L 1.332031 0 L 1.332031 -2.273438 L 19.871094 -2.273438 L 19.871094 0 L 17.597656 0 L 17.597656 -8.359375 L 19.871094 -8.359375 L 19.871094 -6.085938 Z M 10.207031 -6.085938 "/></g></g></g><g fill="#000000" fill-opacity="1"><g transform="translate(156.700726, 182.330772)"><g><path d="M -1.121094 -45.523438 L 14.570312 -45.523438 L 14.570312 2.273438 L -1.121094 2.273438 Z M 3.421875 -40.980469 L 3.421875 -2.273438 L 10.023438 -2.273438 L 10.023438 -40.980469 Z M 3.421875 -40.980469 "/></g></g></g><g fill="#000000" fill-opacity="1"><g transform="translate(181.961966, 182.330772)"><g><path d="M 17.144531 -24.019531 L 17.265625 -24.019531 L 17.265625 -21.746094 L 14.992188 -21.746094 L 14.992188 -45.523438 L 28.988281 -45.523438 L 28.988281 2.273438 L 15.507812 2.273438 L 8.765625 -23.597656 L 10.964844 -24.171875 L 10.964844 -21.898438 L 10.78125 -21.898438 L 10.78125 -24.171875 L 13.054688 -24.171875 L 13.054688 2.273438 L -0.9375 2.273438 L -0.9375 -45.523438 L 12.480469 -45.523438 L 19.320312 -22.390625 L 17.144531 -21.746094 Z M 15.445312 -19.476562 L 8.605469 -42.609375 L 10.78125 -43.253906 L 10.78125 -40.980469 L 1.332031 -40.980469 L 1.332031 -43.253906 L 3.605469 -43.253906 L 3.605469 0 L 1.332031 0 L 1.332031 -2.273438 L 10.78125 -2.273438 L 10.78125 0 L 8.511719 0 L 8.511719 -26.441406 L 12.71875 -26.441406 L 19.464844 -0.574219 L 17.265625 0 L 17.265625 -2.273438 L 26.714844 -2.273438 L 26.714844 0 L 24.441406 0 L 24.441406 -43.253906 L 26.714844 -43.253906 L 26.714844 -40.980469 L 17.265625 -40.980469 L 17.265625 -43.253906 L 19.535156 -43.253906 L 19.535156 -19.476562 Z M 15.445312 -19.476562 "/></g></g></g><g fill="#000000" fill-opacity="1"><g transform="translate(221.821609, 182.330772)"><g><path d="M -1.121094 -45.523438 L 14.570312 -45.523438 L 14.570312 2.273438 L -1.121094 2.273438 Z M 3.421875 -40.980469 L 3.421875 -2.273438 L 10.023438 -2.273438 L 10.023438 -40.980469 Z M 3.421875 -40.980469 "/></g></g></g><g fill="#000000" fill-opacity="1"><g transform="translate(247.082849, 182.330772)"><g><path d="M 14.839844 -46.433594 C 19.703125 -46.433594 23.386719 -45.078125 25.898438 -42.375 C 28.359375 -39.71875 29.59375 -36.335938 29.59375 -32.226562 L 29.59375 -23.59375 L 13.902344 -23.59375 L 13.902344 -34.347656 C 13.902344 -34.605469 13.886719 -34.8125 13.851562 -34.96875 C 13.839844 -35.007812 13.832031 -35.035156 13.828125 -35.054688 C 13.832031 -35.039062 13.84375 -35.019531 13.859375 -34.996094 C 13.976562 -34.816406 14.121094 -34.695312 14.292969 -34.625 C 14.3125 -34.617188 14.328125 -34.613281 14.339844 -34.609375 L 14.335938 -34.609375 C 14.296875 -34.617188 14.242188 -34.621094 14.175781 -34.621094 C 14.292969 -34.621094 14.425781 -34.667969 14.578125 -34.761719 C 14.75 -34.871094 14.867188 -35 14.929688 -35.148438 C 14.8125 -34.867188 14.75 -34.5625 14.75 -34.226562 L 14.75 -9.027344 C 14.75 -8.691406 14.8125 -8.382812 14.929688 -8.105469 C 14.867188 -8.25 14.75 -8.378906 14.578125 -8.488281 C 14.425781 -8.585938 14.292969 -8.632812 14.175781 -8.632812 C 14.226562 -8.632812 14.261719 -8.632812 14.285156 -8.640625 C 14.261719 -8.632812 14.230469 -8.625 14.191406 -8.605469 C 14.023438 -8.527344 13.886719 -8.402344 13.789062 -8.230469 L 13.789062 -8.238281 C 13.804688 -8.289062 13.820312 -8.355469 13.835938 -8.433594 C 13.878906 -8.667969 13.902344 -8.964844 13.902344 -9.328125 L 13.902344 -20.929688 L 29.59375 -20.929688 L 29.59375 -11.265625 C 29.59375 -8.6875 29.046875 -6.3125 27.960938 -4.132812 C 26.824219 -1.863281 25.097656 -0.0703125 22.777344 1.25 C 20.511719 2.535156 17.785156 3.179688 14.597656 3.179688 C 9.691406 3.179688 5.890625 1.953125 3.195312 -0.5 C 0.4375 -3.011719 -0.9375 -6.902344 -0.9375 -12.175781 L -0.9375 -31.078125 C -0.9375 -36 0.441406 -39.796875 3.207031 -42.464844 C 5.949219 -45.109375 9.828125 -46.433594 14.839844 -46.433594 Z M 14.839844 -41.890625 C 11.050781 -41.890625 8.226562 -40.992188 6.363281 -39.195312 C 4.523438 -37.417969 3.605469 -34.714844 3.605469 -31.078125 L 3.605469 -12.175781 C 3.605469 -8.242188 4.488281 -5.46875 6.253906 -3.859375 C 8.082031 -2.195312 10.863281 -1.363281 14.597656 -1.363281 C 16.984375 -1.363281 18.964844 -1.808594 20.535156 -2.703125 C 22.050781 -3.566406 23.171875 -4.71875 23.894531 -6.164062 C 24.664062 -7.703125 25.046875 -9.402344 25.046875 -11.265625 L 25.046875 -18.65625 L 27.320312 -18.65625 L 27.320312 -16.386719 L 16.175781 -16.386719 L 16.175781 -18.65625 L 18.445312 -18.65625 L 18.445312 -9.328125 C 18.445312 -7.910156 18.203125 -6.78125 17.710938 -5.941406 C 17.332031 -5.289062 16.792969 -4.800781 16.097656 -4.480469 C 15.53125 -4.21875 14.890625 -4.089844 14.175781 -4.089844 C 13.410156 -4.089844 12.730469 -4.277344 12.136719 -4.65625 C 11.519531 -5.046875 11.058594 -5.601562 10.753906 -6.3125 C 10.390625 -7.164062 10.207031 -8.070312 10.207031 -9.027344 L 10.207031 -34.226562 C 10.207031 -35.183594 10.390625 -36.085938 10.753906 -36.9375 C 11.058594 -37.652344 11.519531 -38.203125 12.136719 -38.597656 C 12.730469 -38.972656 13.410156 -39.164062 14.175781 -39.164062 C 15.753906 -39.164062 16.90625 -38.613281 17.640625 -37.515625 C 18.175781 -36.710938 18.445312 -35.652344 18.445312 -34.347656 L 18.445312 -25.867188 L 16.175781 -25.867188 L 16.175781 -28.136719 L 27.320312 -28.136719 L 27.320312 -25.867188 L 25.046875 -25.867188 L 25.046875 -32.226562 C 25.046875 -35.148438 24.222656 -37.5 22.566406 -39.285156 C 20.953125 -41.019531 18.378906 -41.890625 14.839844 -41.890625 Z M 14.839844 -41.890625 "/></g></g></g><g fill="#000000" fill-opacity="1"><g transform="translate(286.945925, 182.330772)"><g/></g></g><g fill="#840104" fill-opacity="1"><g transform="translate(84.856098, 182.330772)"><g><path d="M 14.84375 -44.15625 C 19.039062 -44.15625 22.171875 -43.046875 24.234375 -40.828125 C 26.296875 -38.609375 27.328125 -35.742188 27.328125 -32.234375 L 27.328125 -25.859375 L 16.171875 -25.859375 L 16.171875 -34.34375 C 16.171875 -35.195312 16.03125 -35.832031 15.75 -36.25 C 15.46875 -36.675781 14.941406 -36.890625 14.171875 -36.890625 C 13.523438 -36.890625 13.082031 -36.609375 12.84375 -36.046875 C 12.601562 -35.484375 12.484375 -34.878906 12.484375 -34.234375 L 12.484375 -9.03125 C 12.484375 -8.382812 12.601562 -7.773438 12.84375 -7.203125 C 13.082031 -6.640625 13.523438 -6.359375 14.171875 -6.359375 C 14.941406 -6.359375 15.46875 -6.597656 15.75 -7.078125 C 16.03125 -7.566406 16.171875 -8.316406 16.171875 -9.328125 L 16.171875 -18.65625 L 27.328125 -18.65625 L 27.328125 -11.265625 C 27.328125 -9.046875 26.859375 -7.003906 25.921875 -5.140625 C 24.992188 -3.285156 23.570312 -1.8125 21.65625 -0.71875 C 19.738281 0.363281 17.382812 0.90625 14.59375 0.90625 C 10.28125 0.90625 6.988281 -0.117188 4.71875 -2.171875 C 2.457031 -4.234375 1.328125 -7.566406 1.328125 -12.171875 L 1.328125 -31.078125 C 1.328125 -35.359375 2.476562 -38.609375 4.78125 -40.828125 C 7.082031 -43.046875 10.4375 -44.15625 14.84375 -44.15625 Z M 14.84375 -44.15625 "/></g></g></g><g fill="#840104" fill-opacity="1"><g transform="translate(124.71574, 182.330772)"><g><path d="M 12.484375 -8.359375 L 19.875 -8.359375 L 19.875 0 L 1.328125 0 L 1.328125 -43.25 L 12.484375 -43.25 Z M 12.484375 -8.359375 "/></g></g></g><g fill="#840104" fill-opacity="1"><g transform="translate(156.700726, 182.330772)"><g><path d="M 12.296875 0 L 1.15625 0 L 1.15625 -43.25 L 12.296875 -43.25 Z M 12.296875 0 "/></g></g></g><g fill="#840104" fill-opacity="1"><g transform="translate(181.961966, 182.330772)"><g><path d="M 17.140625 -21.75 L 17.265625 -21.75 L 17.265625 -43.25 L 26.71875 -43.25 L 26.71875 0 L 17.265625 0 L 10.96875 -24.171875 L 10.78125 -24.171875 L 10.78125 0 L 1.328125 0 L 1.328125 -43.25 L 10.78125 -43.25 Z M 17.140625 -21.75 "/></g></g></g><g fill="#840104" fill-opacity="1"><g transform="translate(221.821609, 182.330772)"><g><path d="M 12.296875 0 L 1.15625 0 L 1.15625 -43.25 L 12.296875 -43.25 Z M 12.296875 0 "/></g></g></g><g fill="#840104" fill-opacity="1"><g transform="translate(247.082849, 182.330772)"><g><path d="M 14.84375 -44.15625 C 19.039062 -44.15625 22.171875 -43.046875 24.234375 -40.828125 C 26.296875 -38.609375 27.328125 -35.742188 27.328125 -32.234375 L 27.328125 -25.859375 L 16.171875 -25.859375 L 16.171875 -34.34375 C 16.171875 -35.195312 16.03125 -35.832031 15.75 -36.25 C 15.46875 -36.675781 14.941406 -36.890625 14.171875 -36.890625 C 13.523438 -36.890625 13.082031 -36.609375 12.84375 -36.046875 C 12.601562 -35.484375 12.484375 -34.878906 12.484375 -34.234375 L 12.484375 -9.03125 C 12.484375 -8.382812 12.601562 -7.773438 12.84375 -7.203125 C 13.082031 -6.640625 13.523438 -6.359375 14.171875 -6.359375 C 14.941406 -6.359375 15.46875 -6.597656 15.75 -7.078125 C 16.03125 -7.566406 16.171875 -8.316406 16.171875 -9.328125 L 16.171875 -18.65625 L 27.328125 -18.65625 L 27.328125 -11.265625 C 27.328125 -9.046875 26.859375 -7.003906 25.921875 -5.140625 C 24.992188 -3.285156 23.570312 -1.8125 21.65625 -0.71875 C 19.738281 0.363281 17.382812 0.90625 14.59375 0.90625 C 10.28125 0.90625 6.988281 -0.117188 4.71875 -2.171875 C 2.457031 -4.234375 1.328125 -7.566406 1.328125 -12.171875 L 1.328125 -31.078125 C 1.328125 -35.359375 2.476562 -38.609375 4.78125 -40.828125 C 7.082031 -43.046875 10.4375 -44.15625 14.84375 -44.15625 Z M 14.84375 -44.15625 "/></g></g></g><g fill="#840104" fill-opacity="1"><g transform="translate(286.945925, 182.330772)"><g/></g></g></svg>