<svg xmlns="http://www.w3.org/2000/svg" xmlns:xlink="http://www.w3.org/1999/xlink" width="256" zoomAndPan="magnify" viewBox="0 0 192 191.999996" height="256" preserveAspectRatio="xMidYMid meet" version="1.0"><defs><g/><clipPath id="36e6f438a0"><path d="M 6 77 L 58.328125 77 L 58.328125 139.84375 L 6 139.84375 Z M 6 77 " clip-rule="nonzero"/></clipPath><clipPath id="be2aea459e"><path d="M 4.328125 75.34375 L 57 75.34375 L 57 139 L 4.328125 139 Z M 4.328125 75.34375 " clip-rule="nonzero"/></clipPath><clipPath id="6a7c77e48a"><path d="M 4.328125 75.34375 L 58 75.34375 L 58 139 L 4.328125 139 Z M 4.328125 75.34375 " clip-rule="nonzero"/></clipPath></defs><g clip-path="url(#36e6f438a0)"><path fill="#ed2024" d="M 28.460938 125.652344 L 25.339844 127.046875 C 26.730469 123.292969 28.640625 119.785156 30.839844 116.554688 C 32.925781 118.367188 34.71875 120.269531 36.25 122.167969 L 34.300781 123.042969 L 37.148438 128.976562 C 38.089844 128.445312 39.015625 127.933594 39.921875 127.4375 C 44.046875 134.320312 45.0625 140.058594 45.0625 140.058594 L 58.152344 137.875 C 56.847656 131.914062 53.925781 126.613281 50.371094 122.046875 C 53.144531 120.699219 54.867188 119.914062 54.867188 119.914062 L 54.484375 114.007812 L 46.5 117.585938 C 43.269531 114.21875 39.828125 111.382812 36.746094 109.132812 C 46.613281 98.375 58.152344 92.148438 58.152344 92.148438 L 54.183594 77.503906 C 44.242188 85.886719 36.011719 95.363281 29.421875 104.351562 C 27.828125 103.429688 26.859375 102.953125 26.859375 102.953125 L 22.792969 83.488281 L 6.011719 77.503906 L 20.515625 109.789062 C 21.832031 110.414062 23.070312 111.082031 24.25 111.785156 C 13.914062 127.457031 8.953125 140.050781 8.953125 140.050781 L 20.195312 140.050781 C 23.578125 137.351562 27.550781 134.695312 31.574219 132.234375 Z M 28.460938 125.652344 " fill-opacity="1" fill-rule="nonzero"/></g><g clip-path="url(#be2aea459e)"><path fill="#840104" d="M 27.148438 123.867188 L 24.027344 125.261719 C 25.417969 121.507812 27.324219 118 29.523438 114.769531 C 31.609375 116.582031 33.402344 118.484375 34.933594 120.382812 L 32.988281 121.257812 L 35.835938 127.191406 C 36.773438 126.660156 37.703125 126.148438 38.609375 125.652344 C 42.730469 132.535156 43.746094 138.269531 43.746094 138.269531 L 56.835938 136.089844 C 55.535156 130.128906 52.609375 124.828125 49.054688 120.261719 C 51.828125 118.914062 53.550781 118.128906 53.550781 118.128906 L 53.167969 112.222656 L 45.183594 115.796875 C 41.953125 112.433594 38.511719 109.597656 35.433594 107.347656 C 45.300781 96.589844 56.835938 90.363281 56.835938 90.363281 L 52.875 75.71875 C 42.933594 84.101562 34.703125 93.578125 28.109375 102.566406 C 26.511719 101.644531 25.546875 101.167969 25.546875 101.167969 L 21.484375 81.707031 L 4.695312 75.71875 L 19.203125 108.003906 C 20.515625 108.628906 21.757812 109.296875 22.9375 110 C 12.597656 125.671875 7.644531 138.269531 7.644531 138.269531 L 18.886719 138.269531 C 22.269531 135.574219 26.242188 132.914062 30.269531 130.457031 Z M 27.148438 123.867188 " fill-opacity="1" fill-rule="nonzero"/></g><g clip-path="url(#6a7c77e48a)"><path fill="#ed2024" d="M 43.753906 138.613281 C 43.589844 138.613281 43.445312 138.496094 43.417969 138.332031 C 43.414062 138.277344 42.390625 132.730469 38.492188 126.109375 C 37.65625 126.566406 36.824219 127.027344 36.011719 127.492188 C 35.929688 127.539062 35.835938 127.546875 35.738281 127.519531 C 35.652344 127.492188 35.574219 127.421875 35.535156 127.339844 L 32.6875 121.40625 C 32.644531 121.324219 32.640625 121.230469 32.671875 121.140625 C 32.707031 121.050781 32.769531 120.984375 32.855469 120.949219 L 34.398438 120.261719 C 32.933594 118.484375 31.316406 116.8125 29.601562 115.289062 C 27.542969 118.359375 25.871094 121.496094 24.644531 124.621094 L 27.015625 123.558594 C 27.1875 123.484375 27.386719 123.558594 27.46875 123.722656 L 30.589844 130.3125 C 30.664062 130.46875 30.609375 130.660156 30.457031 130.75 C 25.988281 133.472656 22.171875 136.097656 19.113281 138.539062 C 19.050781 138.585938 18.976562 138.613281 18.902344 138.613281 L 7.660156 138.613281 C 7.542969 138.613281 7.441406 138.558594 7.378906 138.460938 C 7.316406 138.367188 7.304688 138.25 7.34375 138.148438 C 7.394531 138.027344 12.367188 125.5 22.472656 110.121094 C 21.375 109.480469 20.230469 108.875 19.074219 108.316406 C 18.996094 108.28125 18.941406 108.222656 18.910156 108.148438 L 4.382812 75.855469 C 4.328125 75.730469 4.347656 75.582031 4.441406 75.488281 C 4.539062 75.382812 4.679688 75.351562 4.8125 75.398438 L 21.601562 81.386719 C 21.710938 81.429688 21.796875 81.523438 21.820312 81.640625 L 25.851562 100.945312 C 26.160156 101.101562 26.914062 101.496094 28.019531 102.121094 C 35.582031 91.832031 43.875 82.867188 52.660156 75.460938 C 52.746094 75.382812 52.871094 75.355469 52.980469 75.398438 C 53.089844 75.433594 53.175781 75.519531 53.203125 75.636719 L 57.175781 90.28125 C 57.21875 90.429688 57.148438 90.59375 57.011719 90.667969 C 56.984375 90.683594 54.089844 92.257812 50.035156 95.109375 C 46.355469 97.699219 40.960938 101.910156 35.957031 107.308594 C 39.414062 109.855469 42.546875 112.574219 45.277344 115.398438 L 53.046875 111.921875 C 53.148438 111.875 53.265625 111.878906 53.359375 111.941406 C 53.457031 111.996094 53.515625 112.097656 53.523438 112.214844 L 53.90625 118.121094 C 53.914062 118.265625 53.835938 118.394531 53.707031 118.457031 C 53.695312 118.464844 52.113281 119.179688 49.597656 120.398438 C 53.46875 125.453125 56.023438 130.707031 57.183594 136.035156 C 57.203125 136.125 57.183594 136.21875 57.136719 136.300781 C 57.089844 136.382812 57 136.433594 56.910156 136.445312 L 43.820312 138.625 C 43.792969 138.605469 43.773438 138.613281 43.753906 138.613281 Z M 8.148438 137.929688 L 18.765625 137.929688 C 21.769531 135.539062 25.492188 132.984375 29.824219 130.328125 L 26.984375 124.316406 L 24.167969 125.578125 C 24.046875 125.632812 23.898438 125.609375 23.792969 125.515625 C 23.691406 125.421875 23.660156 125.277344 23.707031 125.148438 C 25.015625 121.605469 26.882812 118.046875 29.238281 114.578125 C 29.292969 114.496094 29.382812 114.441406 29.476562 114.4375 C 29.574219 114.421875 29.667969 114.449219 29.742188 114.519531 C 31.710938 116.234375 33.546875 118.136719 35.195312 120.171875 C 35.261719 120.253906 35.28125 120.363281 35.261719 120.464844 C 35.234375 120.570312 35.167969 120.65625 35.070312 120.699219 L 33.449219 121.421875 L 35.992188 126.714844 C 36.796875 126.265625 37.628906 125.800781 38.453125 125.351562 C 38.613281 125.261719 38.8125 125.316406 38.90625 125.476562 C 42.457031 131.402344 43.734375 136.554688 44.019531 137.875 L 56.433594 135.8125 C 55.234375 130.59375 52.664062 125.425781 48.796875 120.464844 C 48.734375 120.382812 48.707031 120.28125 48.734375 120.179688 C 48.761719 120.078125 48.824219 119.996094 48.917969 119.949219 C 51.105469 118.878906 52.664062 118.164062 53.210938 117.910156 L 52.875 112.730469 L 45.332031 116.105469 C 45.203125 116.167969 45.046875 116.132812 44.953125 116.03125 C 42.132812 113.09375 38.867188 110.257812 35.25 107.621094 C 35.175781 107.566406 35.121094 107.480469 35.113281 107.382812 C 35.105469 107.289062 35.132812 107.191406 35.203125 107.117188 C 40.320312 101.535156 45.886719 97.195312 49.660156 94.539062 C 53.082031 92.125 55.683594 90.621094 56.460938 90.191406 L 52.6875 76.324219 C 44.027344 83.691406 35.847656 92.582031 28.386719 102.769531 C 28.285156 102.914062 28.09375 102.949219 27.945312 102.867188 C 26.378906 101.960938 25.410156 101.480469 25.402344 101.476562 C 25.308594 101.429688 25.238281 101.339844 25.21875 101.238281 L 21.191406 81.960938 L 5.335938 76.304688 L 19.46875 107.75 C 20.714844 108.351562 21.941406 109.011719 23.121094 109.714844 C 23.203125 109.761719 23.257812 109.835938 23.277344 109.933594 C 23.296875 110.027344 23.285156 110.117188 23.230469 110.199219 C 14.125 123.976562 9.152344 135.511719 8.148438 137.929688 Z M 8.148438 137.929688 " fill-opacity="1" fill-rule="nonzero"/></g><path fill="#ed2024" d="M 34.800781 120.070312 L 40.742188 117.753906 L 35.085938 120.691406 C 34.648438 120.894531 34.363281 120.261719 34.800781 120.070312 Z M 34.800781 120.070312 " fill-opacity="1" fill-rule="nonzero"/><path fill="#ed2024" d="M 24.332031 125.414062 C 23.554688 126.816406 22.820312 128.261719 22.097656 129.699219 C 21.859375 130.183594 21.621094 130.667969 21.390625 131.152344 C 21.933594 129.632812 22.507812 128.117188 23.105469 126.613281 C 23.3125 126.109375 23.507812 125.609375 23.726562 125.113281 C 23.800781 124.941406 24 124.863281 24.175781 124.9375 C 24.359375 125.011719 24.433594 125.242188 24.332031 125.414062 Z M 24.332031 125.414062 " fill-opacity="1" fill-rule="nonzero"/><g fill="#ff0005" fill-opacity="1"><g transform="translate(94.468442, 89.489049)"><g><path d="M 8.671875 -11.25 C 8.992188 -11.15625 9.242188 -10.988281 9.421875 -10.75 C 9.609375 -10.507812 9.6875 -10.242188 9.65625 -9.953125 C 9.625 -9.640625 9.5 -9.378906 9.28125 -9.171875 C 9.0625 -8.960938 8.785156 -8.847656 8.453125 -8.828125 C 8.285156 -8.816406 8.117188 -8.8125 7.953125 -8.8125 C 7.796875 -8.8125 7.632812 -8.8125 7.46875 -8.8125 C 7.382812 -8.8125 7.304688 -8.8125 7.234375 -8.8125 C 7.160156 -8.8125 7.082031 -8.8125 7 -8.8125 L 5.59375 -8.8125 L 5.625 -8.640625 C 5.644531 -8.441406 5.671875 -8.25 5.703125 -8.0625 C 5.734375 -7.882812 5.757812 -7.703125 5.78125 -7.515625 C 5.84375 -7.109375 5.894531 -6.707031 5.9375 -6.3125 C 5.988281 -5.925781 6.035156 -5.539062 6.078125 -5.15625 C 6.128906 -4.726562 6.175781 -4.269531 6.21875 -3.78125 C 6.269531 -3.300781 6.304688 -2.804688 6.328125 -2.296875 C 6.335938 -1.921875 6.265625 -1.53125 6.109375 -1.125 C 5.910156 -0.613281 5.53125 -0.351562 4.96875 -0.34375 C 4.394531 -0.351562 4.007812 -0.609375 3.8125 -1.109375 C 3.632812 -1.597656 3.546875 -2.082031 3.546875 -2.5625 C 3.546875 -3.238281 3.550781 -3.910156 3.5625 -4.578125 C 3.570312 -5.242188 3.585938 -5.910156 3.609375 -6.578125 C 3.609375 -6.835938 3.609375 -7.097656 3.609375 -7.359375 C 3.617188 -7.628906 3.628906 -7.898438 3.640625 -8.171875 C 3.640625 -8.210938 3.632812 -8.285156 3.625 -8.390625 L 3.609375 -8.65625 L 3.109375 -8.6875 C 2.929688 -8.707031 2.753906 -8.722656 2.578125 -8.734375 C 2.410156 -8.753906 2.238281 -8.773438 2.0625 -8.796875 C 1.96875 -8.804688 1.882812 -8.816406 1.8125 -8.828125 C 1.738281 -8.835938 1.660156 -8.851562 1.578125 -8.875 C 0.921875 -9.03125 0.582031 -9.367188 0.5625 -9.890625 C 0.539062 -10.429688 0.867188 -10.796875 1.546875 -10.984375 L 1.59375 -10.984375 C 1.625 -11.003906 1.644531 -11.015625 1.65625 -11.015625 C 1.976562 -11.035156 2.300781 -11.0625 2.625 -11.09375 C 2.957031 -11.125 3.28125 -11.160156 3.59375 -11.203125 C 4.113281 -11.253906 4.632812 -11.304688 5.15625 -11.359375 C 5.675781 -11.410156 6.195312 -11.4375 6.71875 -11.4375 C 6.988281 -11.4375 7.253906 -11.425781 7.515625 -11.40625 C 7.773438 -11.394531 8.035156 -11.367188 8.296875 -11.328125 C 8.429688 -11.304688 8.554688 -11.28125 8.671875 -11.25 Z M 8.671875 -11.25 "/></g></g></g><g fill="#ff0005" fill-opacity="1"><g transform="translate(104.706887, 89.489049)"><g><path d="M 6.78125 -2.78125 C 6.96875 -2.789062 7.164062 -2.757812 7.375 -2.6875 C 7.59375 -2.625 7.765625 -2.460938 7.890625 -2.203125 C 8.078125 -1.796875 7.988281 -1.394531 7.625 -1 C 7.40625 -0.75 7.140625 -0.546875 6.828125 -0.390625 C 5.523438 0.234375 4.097656 0.394531 2.546875 0.09375 C 1.640625 -0.09375 1.050781 -0.6875 0.78125 -1.6875 C 0.601562 -2.3125 0.53125 -2.941406 0.5625 -3.578125 C 0.59375 -4.210938 0.648438 -4.8125 0.734375 -5.375 C 0.804688 -5.84375 0.878906 -6.3125 0.953125 -6.78125 C 1.035156 -7.25 1.117188 -7.710938 1.203125 -8.171875 C 1.242188 -8.398438 1.28125 -8.625 1.3125 -8.84375 C 1.351562 -9.0625 1.394531 -9.28125 1.4375 -9.5 L 1.453125 -9.5625 C 1.460938 -9.625 1.472656 -9.6875 1.484375 -9.75 C 1.492188 -9.820312 1.488281 -9.894531 1.46875 -9.96875 C 1.351562 -10.519531 1.597656 -10.960938 2.203125 -11.296875 C 2.316406 -11.359375 2.429688 -11.410156 2.546875 -11.453125 C 2.660156 -11.503906 2.78125 -11.539062 2.90625 -11.5625 L 3.5625 -11.65625 C 4.03125 -11.71875 4.503906 -11.78125 4.984375 -11.84375 C 5.472656 -11.914062 5.957031 -11.960938 6.4375 -11.984375 C 6.476562 -11.984375 6.519531 -11.984375 6.5625 -11.984375 C 7.039062 -11.984375 7.425781 -11.84375 7.71875 -11.5625 C 7.976562 -11.332031 8.113281 -11.046875 8.125 -10.703125 C 8.132812 -10.304688 7.988281 -9.984375 7.6875 -9.734375 C 7.394531 -9.484375 7.003906 -9.34375 6.515625 -9.3125 C 6.191406 -9.289062 5.875 -9.285156 5.5625 -9.296875 C 5.25 -9.304688 4.929688 -9.320312 4.609375 -9.34375 L 4.21875 -9.359375 C 4.019531 -9.367188 3.863281 -9.367188 3.75 -9.359375 C 3.644531 -9.359375 3.554688 -9.320312 3.484375 -9.25 C 3.410156 -9.1875 3.367188 -9.097656 3.359375 -8.984375 C 3.347656 -8.867188 3.34375 -8.71875 3.34375 -8.53125 C 3.34375 -8.332031 3.34375 -8.132812 3.34375 -7.9375 C 3.34375 -7.75 3.34375 -7.554688 3.34375 -7.359375 L 3.34375 -6.59375 L 3.546875 -6.625 C 3.660156 -6.644531 3.769531 -6.664062 3.875 -6.6875 C 3.976562 -6.707031 4.085938 -6.734375 4.203125 -6.765625 C 4.429688 -6.804688 4.660156 -6.847656 4.890625 -6.890625 C 5.117188 -6.929688 5.347656 -6.960938 5.578125 -6.984375 C 6.148438 -7.035156 6.679688 -7.003906 7.171875 -6.890625 C 7.609375 -6.796875 7.84375 -6.523438 7.875 -6.078125 C 7.894531 -5.828125 7.835938 -5.625 7.703125 -5.46875 C 7.566406 -5.320312 7.429688 -5.21875 7.296875 -5.15625 C 6.929688 -4.96875 6.582031 -4.859375 6.25 -4.828125 C 5.925781 -4.796875 5.59375 -4.769531 5.25 -4.75 C 4.90625 -4.738281 4.5625 -4.722656 4.21875 -4.703125 C 4.070312 -4.703125 3.925781 -4.695312 3.78125 -4.6875 C 3.632812 -4.675781 3.484375 -4.671875 3.328125 -4.671875 L 3.171875 -4.65625 L 3.171875 -4.515625 C 3.171875 -4.441406 3.171875 -4.363281 3.171875 -4.28125 C 3.171875 -4.207031 3.171875 -4.132812 3.171875 -4.0625 C 3.171875 -3.851562 3.171875 -3.640625 3.171875 -3.421875 C 3.171875 -3.203125 3.175781 -2.984375 3.1875 -2.765625 C 3.1875 -2.691406 3.207031 -2.625 3.25 -2.5625 C 3.300781 -2.507812 3.34375 -2.46875 3.375 -2.4375 C 3.414062 -2.414062 3.46875 -2.382812 3.53125 -2.34375 C 3.59375 -2.3125 3.660156 -2.296875 3.734375 -2.296875 C 4.296875 -2.335938 4.925781 -2.410156 5.625 -2.515625 C 5.71875 -2.523438 5.804688 -2.539062 5.890625 -2.5625 C 5.972656 -2.59375 6.054688 -2.617188 6.140625 -2.640625 C 6.253906 -2.671875 6.363281 -2.695312 6.46875 -2.71875 C 6.570312 -2.75 6.675781 -2.769531 6.78125 -2.78125 Z M 6.78125 -2.78125 "/></g></g></g><g fill="#ff0005" fill-opacity="1"><g transform="translate(113.401924, 89.489049)"><g><path d="M 11.6875 -2.5 C 11.695312 -2.4375 11.710938 -2.375 11.734375 -2.3125 C 11.722656 -1.925781 11.640625 -1.609375 11.484375 -1.359375 C 11.328125 -1.109375 11.101562 -0.941406 10.8125 -0.859375 C 10.53125 -0.765625 10.253906 -0.769531 9.984375 -0.875 C 9.722656 -0.988281 9.515625 -1.179688 9.359375 -1.453125 C 9.179688 -1.742188 9.03125 -2.109375 8.90625 -2.546875 C 8.863281 -2.710938 8.789062 -2.859375 8.6875 -2.984375 C 8.59375 -3.117188 8.410156 -3.191406 8.140625 -3.203125 C 7.847656 -3.210938 7.550781 -3.222656 7.25 -3.234375 C 6.957031 -3.242188 6.664062 -3.253906 6.375 -3.265625 C 5.988281 -3.285156 5.59375 -3.300781 5.1875 -3.3125 C 4.789062 -3.332031 4.394531 -3.347656 4 -3.359375 C 3.894531 -3.359375 3.78125 -3.316406 3.65625 -3.234375 C 3.539062 -3.148438 3.453125 -3.0625 3.390625 -2.96875 C 3.304688 -2.820312 3.226562 -2.675781 3.15625 -2.53125 C 3.082031 -2.382812 3.007812 -2.238281 2.9375 -2.09375 C 2.863281 -1.945312 2.785156 -1.796875 2.703125 -1.640625 C 2.628906 -1.492188 2.546875 -1.347656 2.453125 -1.203125 C 2.097656 -0.585938 1.664062 -0.390625 1.15625 -0.609375 C 0.957031 -0.691406 0.789062 -0.851562 0.65625 -1.09375 C 0.53125 -1.34375 0.519531 -1.628906 0.625 -1.953125 C 0.976562 -3.066406 1.4375 -4.328125 2 -5.734375 C 2.351562 -6.628906 2.800781 -7.632812 3.34375 -8.75 C 3.5 -9.070312 3.671875 -9.40625 3.859375 -9.75 C 4.046875 -10.101562 4.253906 -10.445312 4.484375 -10.78125 C 4.710938 -11.125 5.050781 -11.421875 5.5 -11.671875 C 5.832031 -11.878906 6.15625 -11.984375 6.46875 -11.984375 C 7.007812 -11.984375 7.457031 -11.679688 7.8125 -11.078125 C 8.507812 -9.878906 9.191406 -8.628906 9.859375 -7.328125 C 10.535156 -6.023438 11.082031 -4.65625 11.5 -3.21875 C 11.539062 -3.09375 11.578125 -2.96875 11.609375 -2.84375 C 11.640625 -2.71875 11.664062 -2.601562 11.6875 -2.5 Z M 4.90625 -5.9375 L 7.765625 -5.9375 L 6.125 -9.296875 Z M 4.90625 -5.9375 "/></g></g></g><g fill="#ff0005" fill-opacity="1"><g transform="translate(125.703338, 89.489049)"><g><path d="M 14.1875 -3.265625 C 14.21875 -2.722656 14.164062 -2.171875 14.03125 -1.609375 C 13.945312 -1.296875 13.804688 -1.050781 13.609375 -0.875 C 13.410156 -0.707031 13.171875 -0.617188 12.890625 -0.609375 C 12.648438 -0.597656 12.410156 -0.664062 12.171875 -0.8125 C 11.941406 -0.96875 11.796875 -1.210938 11.734375 -1.546875 C 11.535156 -2.535156 11.394531 -3.6875 11.3125 -5 C 11.28125 -5.351562 11.265625 -5.707031 11.265625 -6.0625 C 11.273438 -6.414062 11.28125 -6.769531 11.28125 -7.125 C 11.28125 -7.28125 11.28125 -7.441406 11.28125 -7.609375 C 11.289062 -7.785156 11.296875 -7.953125 11.296875 -8.109375 C 11.296875 -8.203125 11.285156 -8.300781 11.265625 -8.40625 C 11.253906 -8.507812 11.222656 -8.613281 11.171875 -8.71875 L 11.015625 -9.046875 L 10.796875 -8.609375 C 10.773438 -8.554688 10.753906 -8.503906 10.734375 -8.453125 C 10.722656 -8.398438 10.707031 -8.347656 10.6875 -8.296875 C 10.613281 -8.085938 10.539062 -7.882812 10.46875 -7.6875 C 10.394531 -7.488281 10.320312 -7.289062 10.25 -7.09375 C 10.125 -6.75 10.003906 -6.398438 9.890625 -6.046875 C 9.773438 -5.703125 9.648438 -5.363281 9.515625 -5.03125 L 9.5 -4.96875 C 9.425781 -4.769531 9.351562 -4.570312 9.28125 -4.375 C 9.207031 -4.175781 9.117188 -3.988281 9.015625 -3.8125 C 8.722656 -3.320312 8.335938 -3.066406 7.859375 -3.046875 C 7.390625 -3.023438 6.988281 -3.238281 6.65625 -3.6875 C 6.476562 -3.925781 6.316406 -4.179688 6.171875 -4.453125 C 6.035156 -4.734375 5.910156 -5.015625 5.796875 -5.296875 C 5.648438 -5.609375 5.507812 -5.921875 5.375 -6.234375 C 5.238281 -6.546875 5.101562 -6.863281 4.96875 -7.1875 C 4.90625 -7.332031 4.835938 -7.484375 4.765625 -7.640625 C 4.691406 -7.804688 4.625 -7.96875 4.5625 -8.125 C 4.53125 -8.195312 4.488281 -8.273438 4.4375 -8.359375 C 4.382812 -8.441406 4.3125 -8.53125 4.21875 -8.625 L 3.984375 -8.8125 L 3.890625 -8.21875 C 3.878906 -8.113281 3.863281 -8.007812 3.84375 -7.90625 C 3.832031 -7.800781 3.820312 -7.695312 3.8125 -7.59375 C 3.78125 -7.207031 3.742188 -6.820312 3.703125 -6.4375 C 3.660156 -6.0625 3.617188 -5.675781 3.578125 -5.28125 C 3.523438 -4.75 3.46875 -4.210938 3.40625 -3.671875 C 3.351562 -3.140625 3.296875 -2.601562 3.234375 -2.0625 C 3.222656 -1.875 3.203125 -1.691406 3.171875 -1.515625 C 3.148438 -1.335938 3.117188 -1.171875 3.078125 -1.015625 C 2.992188 -0.691406 2.832031 -0.4375 2.59375 -0.25 C 2.363281 -0.0703125 2.097656 0.0078125 1.796875 0 C 1.492188 -0.0078125 1.234375 -0.117188 1.015625 -0.328125 C 0.796875 -0.535156 0.664062 -0.789062 0.625 -1.09375 C 0.539062 -1.726562 0.539062 -2.304688 0.625 -2.828125 C 0.988281 -5.078125 1.398438 -7.367188 1.859375 -9.703125 C 1.960938 -10.242188 2.15625 -10.769531 2.4375 -11.28125 C 2.6875 -11.726562 3.019531 -11.988281 3.4375 -12.0625 C 3.5 -12.070312 3.5625 -12.078125 3.625 -12.078125 C 3.957031 -12.078125 4.269531 -11.941406 4.5625 -11.671875 C 5.03125 -11.242188 5.523438 -10.632812 6.046875 -9.84375 C 6.210938 -9.59375 6.363281 -9.332031 6.5 -9.0625 C 6.644531 -8.800781 6.796875 -8.53125 6.953125 -8.25 C 7.015625 -8.113281 7.078125 -7.984375 7.140625 -7.859375 C 7.210938 -7.734375 7.28125 -7.601562 7.34375 -7.46875 L 7.515625 -7.171875 L 7.65625 -7.484375 C 7.707031 -7.609375 7.753906 -7.726562 7.796875 -7.84375 C 7.847656 -7.96875 7.898438 -8.09375 7.953125 -8.21875 C 8.046875 -8.5 8.144531 -8.765625 8.25 -9.015625 C 8.351562 -9.265625 8.460938 -9.519531 8.578125 -9.78125 C 8.828125 -10.34375 9.128906 -10.914062 9.484375 -11.5 C 9.660156 -11.800781 9.882812 -12.078125 10.15625 -12.328125 C 10.632812 -12.765625 11.128906 -12.9375 11.640625 -12.84375 C 12.148438 -12.738281 12.539062 -12.382812 12.8125 -11.78125 C 13.28125 -10.75 13.585938 -9.476562 13.734375 -7.96875 L 13.828125 -7.03125 C 13.898438 -6.414062 13.96875 -5.789062 14.03125 -5.15625 C 14.09375 -4.519531 14.144531 -3.890625 14.1875 -3.265625 Z M 14.1875 -3.265625 "/></g></g></g><path stroke-linecap="butt" transform="matrix(0.75, 0, 0, 0.75, 81.640413, 73.813361)" fill="none" stroke-linejoin="miter" d="M 27.755493 4.998852 C 28.192993 5.123852 28.531535 5.342602 28.776326 5.665519 C 29.021118 5.983227 29.125285 6.342602 29.083618 6.733227 C 29.041951 7.139477 28.875285 7.483227 28.583618 7.759269 C 28.291951 8.040519 27.92216 8.191561 27.474243 8.222811 C 27.255493 8.238436 27.041951 8.243644 26.823201 8.243644 C 26.604451 8.243644 26.385701 8.243644 26.166951 8.243644 C 26.057576 8.243644 25.953409 8.243644 25.849243 8.243644 C 25.750284 8.243644 25.646118 8.243644 25.536743 8.243644 L 23.661743 8.243644 L 23.703409 8.488436 C 23.729451 8.743644 23.765909 8.998853 23.807576 9.243644 C 23.844034 9.483228 23.880493 9.728019 23.906534 9.972811 C 23.989868 10.519686 24.062784 11.050936 24.130493 11.576978 C 24.198201 12.097811 24.260701 12.618644 24.312784 13.13427 C 24.380493 13.701978 24.448201 14.311353 24.505493 14.957186 C 24.567993 15.60302 24.614868 16.264478 24.640909 16.94677 C 24.656534 17.431145 24.557576 17.94677 24.354451 18.493645 C 24.083618 19.170728 23.573201 19.519687 22.823201 19.530103 C 22.067993 19.519687 21.557576 19.181145 21.297159 18.514478 C 21.052367 17.858228 20.927367 17.212395 20.927367 16.576978 C 20.927367 15.681145 20.937784 14.79052 20.948201 13.899895 C 20.963826 13.009269 20.984659 12.118644 21.015909 11.238436 C 21.015909 10.884269 21.015909 10.530103 21.026326 10.175936 C 21.031534 9.821769 21.041951 9.462394 21.052367 9.097811 C 21.052367 9.040519 21.047159 8.946769 21.036742 8.811353 L 21.015909 8.467603 L 20.338826 8.399894 C 20.109659 8.373853 19.880492 8.353019 19.646117 8.332186 C 19.416951 8.311353 19.187784 8.290519 18.953409 8.264478 C 18.833617 8.248853 18.719034 8.238436 18.614867 8.222811 C 18.515909 8.207186 18.411742 8.186353 18.302367 8.160311 C 17.432576 7.957186 16.984659 7.509269 16.958617 6.816561 C 16.927367 6.092602 17.364867 5.608227 18.260701 5.347811 L 18.323201 5.347811 C 18.364867 5.321769 18.390909 5.306144 18.401326 5.306144 C 18.838826 5.280102 19.271117 5.248852 19.703409 5.207186 C 20.146117 5.165519 20.573201 5.118644 20.995076 5.061352 C 21.682576 4.993644 22.380493 4.925936 23.078409 4.858227 C 23.781534 4.790519 24.474243 4.754061 25.166951 4.754061 C 25.526326 4.754061 25.875284 4.764477 26.219034 4.785311 C 26.567993 4.806144 26.916951 4.842602 27.271118 4.899894 C 27.442993 4.925936 27.60966 4.957186 27.755493 4.998852 Z M 38.906535 16.295728 C 39.146119 16.274895 39.411744 16.311353 39.698202 16.405103 C 39.979452 16.493645 40.208619 16.712395 40.375285 17.066561 C 40.630494 17.608228 40.510702 18.144686 40.026327 18.675937 C 39.724244 19.004062 39.370077 19.264478 38.963827 19.472812 C 37.224243 20.311353 35.323202 20.530103 33.255493 20.123853 C 32.04716 19.879062 31.260701 19.087395 30.896118 17.754061 C 30.661743 16.91552 30.567993 16.066561 30.604451 15.217603 C 30.651326 14.368645 30.724243 13.57177 30.833618 12.826978 C 30.927368 12.201978 31.026326 11.576978 31.135701 10.951978 C 31.245076 10.326978 31.354451 9.707186 31.469035 9.097811 C 31.521118 8.800936 31.567993 8.504061 31.614868 8.212394 C 31.666951 7.915519 31.719035 7.618644 31.771118 7.321769 L 31.791951 7.243644 C 31.802368 7.160311 31.817993 7.076977 31.82841 6.988436 C 31.844035 6.899894 31.838826 6.806144 31.807576 6.712394 C 31.661743 5.962394 31.98466 5.373852 32.791952 4.936352 C 32.937785 4.858227 33.094035 4.780102 33.250285 4.717602 C 33.401327 4.649894 33.562785 4.603019 33.724243 4.571769 L 34.599243 4.451977 C 35.229452 4.368644 35.864868 4.285311 36.505493 4.196769 C 37.151327 4.108227 37.79716 4.050936 38.432577 4.024894 C 38.489869 4.024894 38.541952 4.024894 38.594035 4.024894 C 39.23466 4.024894 39.750285 4.207186 40.146119 4.571769 C 40.500285 4.884269 40.682577 5.274894 40.698202 5.733227 C 40.708619 6.248852 40.51591 6.675936 40.114869 7.019686 C 39.713827 7.358227 39.187785 7.545727 38.536744 7.592602 C 38.114869 7.618644 37.692993 7.623852 37.271118 7.608227 C 36.849243 7.597811 36.432577 7.576977 36.010702 7.545727 L 35.474243 7.524894 C 35.219035 7.514477 35.021118 7.509269 34.870077 7.514477 C 34.719035 7.524894 34.599243 7.571769 34.500285 7.670727 C 34.406535 7.754061 34.349243 7.868644 34.338827 8.019686 C 34.323202 8.165519 34.317993 8.368644 34.317993 8.623853 C 34.317993 8.884269 34.317993 9.144686 34.317993 9.399894 C 34.317993 9.660311 34.317993 9.920728 34.317993 10.175936 L 34.317993 11.196769 L 34.583618 11.155103 C 34.729452 11.129061 34.875285 11.097811 35.021118 11.071769 C 35.161743 11.045728 35.307577 11.014478 35.458618 10.967603 C 35.771118 10.915519 36.083618 10.863436 36.385702 10.811353 C 36.692993 10.754061 36.995077 10.712394 37.291952 10.686353 C 38.052369 10.618644 38.760702 10.660311 39.411744 10.811353 C 39.995077 10.931144 40.307577 11.290519 40.349244 11.889478 C 40.375285 12.228019 40.302369 12.498853 40.125285 12.696769 C 39.948202 12.889478 39.76591 13.035311 39.57841 13.13427 C 39.099244 13.373853 38.635702 13.519686 38.187785 13.561353 C 37.755493 13.60302 37.307577 13.629061 36.854452 13.649895 C 36.401327 13.670728 35.942993 13.69677 35.474243 13.722811 C 35.286743 13.722811 35.094035 13.72802 34.896118 13.743645 C 34.698202 13.75927 34.500285 13.764478 34.29716 13.764478 L 34.094035 13.785311 L 34.094035 13.988436 C 34.094035 14.082186 34.094035 14.181145 34.094035 14.285311 C 34.094035 14.38427 34.094035 14.483228 34.094035 14.576978 C 34.094035 14.863436 34.094035 15.149895 34.094035 15.44677 C 34.094035 15.738436 34.099243 16.030103 34.114868 16.311353 C 34.114868 16.405103 34.14091 16.488436 34.20341 16.566561 C 34.26591 16.639478 34.317993 16.69677 34.35966 16.738436 C 34.411743 16.780103 34.479452 16.826978 34.562785 16.873853 C 34.646118 16.920728 34.73466 16.94677 34.823202 16.94677 C 35.588827 16.889478 36.432577 16.785311 37.354452 16.63427 C 37.474243 16.623853 37.594035 16.597811 37.708618 16.566561 C 37.82841 16.535311 37.937785 16.504061 38.04716 16.472811 C 38.198202 16.431145 38.344035 16.394686 38.48466 16.363436 C 38.630494 16.332186 38.771119 16.306145 38.906535 16.295728 Z M 57.036745 16.655103 C 57.05237 16.754061 57.073203 16.842603 57.099245 16.925936 C 57.088828 17.425936 56.974245 17.847811 56.760703 18.186353 C 56.55237 18.524895 56.260703 18.748853 55.875286 18.858228 C 55.495078 18.97802 55.125286 18.967603 54.77112 18.816562 C 54.422161 18.66552 54.135703 18.41552 53.922161 18.066561 C 53.687786 17.670728 53.489869 17.181145 53.328411 16.597811 C 53.276328 16.379061 53.182578 16.181145 53.047161 16.004061 C 52.911744 15.826978 52.666953 15.733228 52.307578 15.722811 C 51.916953 15.707186 51.521119 15.69677 51.125286 15.681145 C 50.734661 15.66552 50.338828 15.655103 49.948203 15.63427 C 49.427369 15.608228 48.906536 15.587395 48.375286 15.566561 C 47.844036 15.545728 47.317994 15.530103 46.786744 15.514478 C 46.651327 15.514478 46.500286 15.576978 46.338827 15.691561 C 46.177369 15.806145 46.052369 15.925936 45.969036 16.045728 C 45.864869 16.238436 45.760702 16.431145 45.656536 16.629061 C 45.552369 16.826978 45.453411 17.019686 45.359661 17.207186 C 45.265911 17.399895 45.166952 17.592603 45.062786 17.800936 C 44.963827 18.004061 44.849244 18.19677 44.724244 18.389478 C 44.250286 19.217603 43.677369 19.483228 42.995077 19.186353 C 42.724244 19.076978 42.500285 18.858228 42.333619 18.530103 C 42.161744 18.207186 42.146119 17.826978 42.281535 17.394686 C 42.755494 15.910311 43.370077 14.233228 44.120077 12.358228 C 44.594036 11.165519 45.192994 9.816561 45.911744 8.321769 C 46.114869 7.899894 46.338827 7.457186 46.594036 6.988436 C 46.844036 6.519686 47.120077 6.056144 47.416952 5.608227 C 47.729452 5.160311 48.187786 4.769686 48.786744 4.431144 C 49.234661 4.160311 49.661744 4.024894 50.067994 4.024894 C 50.791953 4.024894 51.385703 4.420727 51.859661 5.222811 C 52.802369 6.826977 53.719036 8.498853 54.61487 10.228019 C 55.510703 11.957186 56.234661 13.785311 56.791953 15.701978 C 56.849245 15.879061 56.89612 16.045728 56.937786 16.207186 C 56.974245 16.368645 57.010703 16.519686 57.036745 16.655103 Z M 47.989869 12.071769 L 51.802369 12.071769 L 49.620078 7.608227 Z M 76.760704 15.63427 C 76.802371 16.358228 76.734663 17.10302 76.557579 17.858228 C 76.448204 18.269686 76.260704 18.587395 75.995079 18.82177 C 75.734663 19.050937 75.416954 19.170728 75.052371 19.186353 C 74.724246 19.19677 74.406537 19.10302 74.088829 18.899895 C 73.776329 18.69677 73.583621 18.373853 73.500287 17.941561 C 73.229454 16.623853 73.041954 15.087395 72.932579 13.337395 C 72.890912 12.858228 72.875287 12.384269 72.880496 11.910311 C 72.885704 11.436353 72.890912 10.967603 72.890912 10.504061 C 72.890912 10.285311 72.896121 10.066561 72.901329 9.842603 C 72.906537 9.618644 72.911746 9.394686 72.911746 9.175936 C 72.911746 9.056144 72.901329 8.925936 72.880496 8.790519 C 72.859662 8.655103 72.817996 8.509269 72.745079 8.363436 L 72.541954 7.936353 L 72.260704 8.524894 C 72.234662 8.592603 72.203412 8.660311 72.172162 8.728019 C 72.146121 8.795728 72.120079 8.863436 72.094037 8.936353 C 72.000287 9.207186 71.901329 9.472811 71.807579 9.738436 C 71.713829 10.004061 71.620079 10.274894 71.521121 10.540519 C 71.359662 11.004061 71.203412 11.467603 71.047162 11.931144 C 70.890912 12.389478 70.724246 12.842603 70.547162 13.29052 L 70.526329 13.379061 C 70.432579 13.63427 70.333621 13.899895 70.229454 14.16552 C 70.130496 14.425936 70.010704 14.681145 69.875287 14.925936 C 69.479454 15.576978 68.963829 15.920728 68.323204 15.94677 C 67.698204 15.972811 67.172162 15.686353 66.734662 15.087395 C 66.48987 14.764478 66.276329 14.41552 66.094037 14.050936 C 65.911745 13.681145 65.73987 13.306145 65.573204 12.931144 C 65.380495 12.519686 65.192995 12.108228 65.010704 11.686353 C 64.828412 11.264478 64.64612 10.842603 64.474245 10.420728 C 64.390912 10.217603 64.30237 10.009269 64.20862 9.800936 C 64.109662 9.587394 64.026328 9.373853 63.942995 9.160311 C 63.901328 9.061353 63.844037 8.962394 63.765912 8.853019 C 63.692995 8.743644 63.594037 8.629061 63.474245 8.504061 L 63.166953 8.243644 L 63.041953 9.035311 C 63.031537 9.170728 63.015912 9.311353 62.995078 9.451978 C 62.974245 9.592603 62.95862 9.733228 62.942995 9.868644 C 62.890912 10.389478 62.838828 10.899894 62.781537 11.410311 C 62.729453 11.920728 62.672162 12.431144 62.61487 12.951978 C 62.55237 13.670728 62.479453 14.38427 62.401328 15.097811 C 62.328412 15.811353 62.250287 16.530103 62.166953 17.248853 C 62.156537 17.493645 62.130495 17.738436 62.099245 17.972811 C 62.067995 18.212395 62.015912 18.436353 61.942995 18.655103 C 61.838828 19.076978 61.625287 19.410312 61.312787 19.655103 C 61.000287 19.899895 60.64612 20.014478 60.250287 19.998853 C 59.844037 19.988437 59.495078 19.842603 59.203412 19.561353 C 58.911745 19.285312 58.73987 18.941562 58.687786 18.530103 C 58.578411 17.691561 58.578411 16.920728 58.687786 16.22802 C 59.172162 13.22802 59.724245 10.170728 60.338828 7.056144 C 60.474245 6.337394 60.724245 5.639477 61.088828 4.957186 C 61.432578 4.363436 61.880495 4.014477 62.437787 3.920727 C 62.515912 3.905102 62.599245 3.899894 62.682578 3.899894 C 63.130495 3.899894 63.55237 4.076977 63.942995 4.431144 C 64.567995 5.004061 65.224245 5.816561 65.922162 6.873852 C 66.140912 7.201977 66.344037 7.540519 66.531537 7.905103 C 66.719037 8.264478 66.916954 8.629061 67.125287 8.993644 C 67.203412 9.170728 67.286745 9.342603 67.380495 9.514478 C 67.469037 9.686353 67.557579 9.858228 67.651329 10.035311 L 67.875287 10.441561 L 68.057579 10.014478 C 68.130495 9.853019 68.192995 9.686353 68.255495 9.524894 C 68.312787 9.363436 68.380495 9.201978 68.448204 9.035311 C 68.58362 8.670728 68.719037 8.316561 68.854454 7.978019 C 68.98987 7.639477 69.135704 7.295727 69.281537 6.957186 C 69.620079 6.207186 70.031537 5.441561 70.505496 4.655102 C 70.734662 4.259269 71.036746 3.894686 71.401329 3.556144 C 72.041954 2.967602 72.698204 2.743644 73.380496 2.879061 C 74.057579 3.014477 74.573204 3.483227 74.927371 4.285311 C 75.552371 5.660311 75.969038 7.358227 76.172163 9.384269 L 76.291954 10.623853 C 76.390913 11.441561 76.479454 12.274894 76.557579 13.123853 C 76.640913 13.972811 76.708621 14.811353 76.760704 15.63427 Z M 76.760704 15.63427 " stroke="#ffffff" stroke-width="0.764456" stroke-opacity="1" stroke-miterlimit="4"/><g fill="#840104" fill-opacity="1"><g transform="translate(44.550506, 136.711536)"><g/></g></g><g fill="#840104" fill-opacity="1"><g transform="translate(56.785156, 136.711536)"><g><path d="M 23.9375 -31.03125 C 22.113281 -31.144531 20.265625 -31.128906 18.390625 -30.984375 C 16.523438 -30.847656 14.828125 -30.570312 13.296875 -30.15625 C 11.765625 -29.738281 10.566406 -29.1875 9.703125 -28.5 C 8.566406 -27.5625 7.984375 -26.628906 7.953125 -25.703125 C 7.929688 -24.773438 8.429688 -24.160156 9.453125 -23.859375 C 10.316406 -23.609375 11.25 -23.613281 12.25 -23.875 C 13.257812 -24.132812 14.085938 -24.570312 14.734375 -25.1875 C 14.890625 -25.351562 15.023438 -25.414062 15.140625 -25.375 C 15.253906 -25.332031 15.320312 -25.195312 15.34375 -24.96875 C 15.488281 -23.53125 15.414062 -22.3125 15.125 -21.3125 C 14.832031 -20.320312 14.429688 -19.515625 13.921875 -18.890625 C 13.410156 -18.273438 12.875 -17.8125 12.3125 -17.5 C 11.757812 -17.195312 11.289062 -17.019531 10.90625 -16.96875 C 9.164062 -16.71875 7.785156 -17.003906 6.765625 -17.828125 C 5.742188 -18.660156 5.097656 -19.816406 4.828125 -21.296875 C 4.566406 -22.773438 4.671875 -24.390625 5.140625 -26.140625 C 5.722656 -28.234375 6.570312 -29.984375 7.6875 -31.390625 C 8.8125 -32.804688 10.117188 -33.957031 11.609375 -34.84375 C 13.109375 -35.726562 14.726562 -36.398438 16.46875 -36.859375 C 18.207031 -37.316406 19.984375 -37.628906 21.796875 -37.796875 C 23.609375 -37.960938 25.382812 -38.046875 27.125 -38.046875 C 28.457031 -38.046875 29.890625 -37.929688 31.421875 -37.703125 C 32.960938 -37.484375 34.4375 -37.109375 35.84375 -36.578125 C 37.25 -36.054688 38.460938 -35.359375 39.484375 -34.484375 C 40.515625 -33.617188 41.203125 -32.539062 41.546875 -31.25 C 41.890625 -29.96875 41.742188 -28.441406 41.109375 -26.671875 C 40.441406 -24.878906 39.179688 -23.222656 37.328125 -21.703125 C 35.484375 -20.179688 33.160156 -18.976562 30.359375 -18.09375 C 32.023438 -17.59375 33.226562 -16.878906 33.96875 -15.953125 C 34.71875 -15.023438 35.117188 -14.007812 35.171875 -12.90625 C 35.234375 -11.800781 35.039062 -10.691406 34.59375 -9.578125 C 33.820312 -7.535156 32.769531 -5.796875 31.4375 -4.359375 C 30.113281 -2.921875 28.675781 -1.832031 27.125 -1.09375 C 25.582031 -0.363281 24.050781 0 22.53125 0 C 20.8125 0 19.296875 -0.515625 17.984375 -1.546875 C 16.671875 -2.585938 15.863281 -4.144531 15.5625 -6.21875 C 14.28125 -4.445312 12.78125 -2.96875 11.0625 -1.78125 C 9.351562 -0.59375 7.378906 0 5.140625 0 C 3.703125 0 2.539062 -0.328125 1.65625 -0.984375 C 0.769531 -1.648438 0.128906 -2.53125 -0.265625 -3.625 C -0.671875 -4.71875 -0.875 -5.898438 -0.875 -7.171875 C -0.875 -8.441406 -0.710938 -9.695312 -0.390625 -10.9375 C -0.078125 -12.1875 0.367188 -13.285156 0.953125 -14.234375 C 1.171875 -14.566406 1.40625 -14.765625 1.65625 -14.828125 C 1.90625 -14.898438 2.085938 -14.703125 2.203125 -14.234375 C 2.472656 -12.796875 3.078125 -11.773438 4.015625 -11.171875 C 4.960938 -10.578125 6.03125 -10.28125 7.21875 -10.28125 C 8.957031 -10.28125 10.5 -10.679688 11.84375 -11.484375 C 13.1875 -12.285156 14.34375 -13.34375 15.3125 -14.65625 C 16.28125 -15.976562 17.066406 -17.367188 17.671875 -18.828125 C 18.273438 -20.242188 18.847656 -21.675781 19.390625 -23.125 C 19.929688 -24.582031 20.5625 -25.988281 21.28125 -27.34375 C 22 -28.695312 22.882812 -29.925781 23.9375 -31.03125 Z M 17.71875 -9.703125 C 18.90625 -9.097656 20.289062 -8.757812 21.875 -8.6875 C 23.46875 -8.625 24.957031 -8.8125 26.34375 -9.25 C 27.613281 -9.664062 28.671875 -10.265625 29.515625 -11.046875 C 30.359375 -11.835938 30.894531 -12.648438 31.125 -13.484375 C 31.363281 -14.316406 31.253906 -15.019531 30.796875 -15.59375 C 30.347656 -16.175781 29.472656 -16.46875 28.171875 -16.46875 C 26.867188 -16.46875 25.082031 -16.023438 22.8125 -15.140625 C 22.539062 -15.023438 22.328125 -15.03125 22.171875 -15.15625 C 22.015625 -15.28125 21.992188 -15.5 22.109375 -15.8125 L 23.3125 -18.921875 C 23.425781 -19.253906 23.675781 -19.363281 24.0625 -19.25 C 24.945312 -19.050781 25.820312 -19.035156 26.6875 -19.203125 C 27.5625 -19.367188 28.398438 -19.632812 29.203125 -20 C 30.941406 -20.800781 32.257812 -21.691406 33.15625 -22.671875 C 34.0625 -23.648438 34.523438 -24.628906 34.546875 -25.609375 C 34.578125 -26.597656 34.164062 -27.503906 33.3125 -28.328125 C 32.457031 -29.160156 31.144531 -29.8125 29.375 -30.28125 C 28.019531 -29.695312 26.867188 -28.832031 25.921875 -27.6875 C 24.984375 -26.539062 24.195312 -25.257812 23.5625 -23.84375 C 22.925781 -22.4375 22.359375 -21.03125 21.859375 -19.625 C 21.335938 -18.125 20.738281 -16.507812 20.0625 -14.78125 C 19.382812 -13.0625 18.601562 -11.367188 17.71875 -9.703125 Z M 17.71875 -9.703125 "/></g></g></g><g fill="#840104" fill-opacity="1"><g transform="translate(94.77478, 136.711536)"><g><path d="M 3.03125 -16.84375 C 2.914062 -16.726562 2.8125 -16.691406 2.71875 -16.734375 C 2.625 -16.773438 2.578125 -16.878906 2.578125 -17.046875 C 2.628906 -17.929688 2.875 -18.753906 3.3125 -19.515625 C 3.757812 -20.273438 4.453125 -20.78125 5.390625 -21.03125 C 6.109375 -21.226562 6.972656 -21.304688 7.984375 -21.265625 C 8.992188 -21.222656 10.054688 -21.125 11.171875 -20.96875 C 12.296875 -20.8125 13.390625 -20.6875 14.453125 -20.59375 C 15.515625 -20.5 16.484375 -20.476562 17.359375 -20.53125 C 18.234375 -20.59375 18.921875 -20.800781 19.421875 -21.15625 C 19.554688 -21.289062 19.671875 -21.332031 19.765625 -21.28125 C 19.859375 -21.226562 19.894531 -21.117188 19.875 -20.953125 C 19.84375 -20.066406 19.601562 -19.242188 19.15625 -18.484375 C 18.71875 -17.722656 18.03125 -17.234375 17.09375 -17.015625 C 16.34375 -16.816406 15.460938 -16.738281 14.453125 -16.78125 C 13.441406 -16.820312 12.375 -16.910156 11.25 -17.046875 C 10.132812 -17.179688 9.046875 -17.304688 7.984375 -17.421875 C 6.921875 -17.535156 5.953125 -17.554688 5.078125 -17.484375 C 4.210938 -17.410156 3.53125 -17.195312 3.03125 -16.84375 Z M 3.03125 -16.84375 "/></g></g></g><g fill="#840104" fill-opacity="1"><g transform="translate(114.847899, 136.711536)"><g><path d="M 24.1875 -29.53125 C 24.957031 -31.050781 25.242188 -32.289062 25.046875 -33.25 C 24.859375 -34.207031 24.347656 -34.898438 23.515625 -35.328125 C 22.691406 -35.753906 21.710938 -35.914062 20.578125 -35.8125 C 19.441406 -35.71875 18.332031 -35.367188 17.25 -34.765625 C 15.789062 -33.910156 14.554688 -32.710938 13.546875 -31.171875 C 12.535156 -29.640625 11.847656 -28.03125 11.484375 -26.34375 C 11.179688 -24.851562 10.863281 -23.304688 10.53125 -21.703125 C 10.207031 -20.097656 9.742188 -18.519531 9.140625 -16.96875 C 8.546875 -15.414062 7.707031 -13.972656 6.625 -12.640625 C 5.550781 -11.316406 4.101562 -10.171875 2.28125 -9.203125 C 3.363281 -9.535156 4.566406 -9.707031 5.890625 -9.71875 C 7.210938 -9.738281 8.59375 -9.671875 10.03125 -9.515625 C 11.476562 -9.367188 12.882812 -9.203125 14.25 -9.015625 C 15.613281 -8.835938 16.878906 -8.707031 18.046875 -8.625 C 19.835938 -8.488281 21.351562 -8.535156 22.59375 -8.765625 C 23.84375 -9.003906 24.898438 -9.507812 25.765625 -10.28125 C 26.015625 -10.507812 26.234375 -10.582031 26.421875 -10.5 C 26.617188 -10.414062 26.703125 -10.222656 26.671875 -9.921875 C 26.566406 -6.867188 25.648438 -4.453125 23.921875 -2.671875 C 22.191406 -0.890625 19.847656 0 16.890625 0 C 15.523438 0 14.019531 -0.0859375 12.375 -0.265625 C 10.738281 -0.453125 9.054688 -0.644531 7.328125 -0.84375 C 5.597656 -1.050781 3.9375 -1.203125 2.34375 -1.296875 C 0.75 -1.398438 -0.703125 -1.390625 -2.015625 -1.265625 C -3.328125 -1.140625 -4.382812 -0.828125 -5.1875 -0.328125 C -5.625 -0.0546875 -5.953125 0.0078125 -6.171875 -0.125 C -6.398438 -0.257812 -6.289062 -0.601562 -5.84375 -1.15625 C -4.570312 -2.820312 -3.457031 -4.609375 -2.5 -6.515625 C -1.550781 -8.421875 -0.707031 -10.382812 0.03125 -12.40625 C 0.78125 -14.425781 1.503906 -16.40625 2.203125 -18.34375 C 2.859375 -20.21875 3.582031 -22.09375 4.375 -23.96875 C 5.164062 -25.851562 6.070312 -27.640625 7.09375 -29.328125 C 8.113281 -31.015625 9.300781 -32.515625 10.65625 -33.828125 C 12.007812 -35.140625 13.578125 -36.171875 15.359375 -36.921875 C 17.148438 -37.671875 19.207031 -38.046875 21.53125 -38.046875 C 23.851562 -38.046875 25.71875 -37.523438 27.125 -36.484375 C 28.539062 -35.453125 29.460938 -34.0625 29.890625 -32.3125 C 30.316406 -30.570312 30.171875 -28.640625 29.453125 -26.515625 C 28.648438 -24.078125 27.335938 -22.078125 25.515625 -20.515625 C 23.691406 -18.953125 21.476562 -18.144531 18.875 -18.09375 C 17.15625 -18.0625 15.828125 -18.476562 14.890625 -19.34375 C 13.953125 -20.21875 13.410156 -21.332031 13.265625 -22.6875 C 13.128906 -24.039062 13.367188 -25.4375 13.984375 -26.875 C 14.085938 -27.15625 14.226562 -27.300781 14.40625 -27.3125 C 14.59375 -27.332031 14.753906 -27.226562 14.890625 -27 C 15.335938 -26.34375 15.921875 -25.910156 16.640625 -25.703125 C 17.359375 -25.492188 18.085938 -25.441406 18.828125 -25.546875 C 19.960938 -25.710938 21.003906 -26.160156 21.953125 -26.890625 C 22.910156 -27.628906 23.65625 -28.507812 24.1875 -29.53125 Z M 24.1875 -29.53125 "/></g></g></g><g fill="#840104" fill-opacity="1"><g transform="translate(141.100556, 136.711536)"><g><path d="M 3.03125 -16.84375 C 2.914062 -16.726562 2.8125 -16.691406 2.71875 -16.734375 C 2.625 -16.773438 2.578125 -16.878906 2.578125 -17.046875 C 2.628906 -17.929688 2.875 -18.753906 3.3125 -19.515625 C 3.757812 -20.273438 4.453125 -20.78125 5.390625 -21.03125 C 6.109375 -21.226562 6.972656 -21.304688 7.984375 -21.265625 C 8.992188 -21.222656 10.054688 -21.125 11.171875 -20.96875 C 12.296875 -20.8125 13.390625 -20.6875 14.453125 -20.59375 C 15.515625 -20.5 16.484375 -20.476562 17.359375 -20.53125 C 18.234375 -20.59375 18.921875 -20.800781 19.421875 -21.15625 C 19.554688 -21.289062 19.671875 -21.332031 19.765625 -21.28125 C 19.859375 -21.226562 19.894531 -21.117188 19.875 -20.953125 C 19.84375 -20.066406 19.601562 -19.242188 19.15625 -18.484375 C 18.71875 -17.722656 18.03125 -17.234375 17.09375 -17.015625 C 16.34375 -16.816406 15.460938 -16.738281 14.453125 -16.78125 C 13.441406 -16.820312 12.375 -16.910156 11.25 -17.046875 C 10.132812 -17.179688 9.046875 -17.304688 7.984375 -17.421875 C 6.921875 -17.535156 5.953125 -17.554688 5.078125 -17.484375 C 4.210938 -17.410156 3.53125 -17.195312 3.03125 -16.84375 Z M 3.03125 -16.84375 "/></g></g></g><g fill="#840104" fill-opacity="1"><g transform="translate(161.173675, 136.711536)"><g><path d="M -1.953125 -0.203125 C -2.222656 -0.015625 -2.46875 0.0351562 -2.6875 -0.046875 C -2.914062 -0.128906 -2.972656 -0.363281 -2.859375 -0.75 C -2.273438 -2.457031 -1.367188 -4.035156 -0.140625 -5.484375 C 1.085938 -6.941406 2.550781 -8.3125 4.25 -9.59375 C 5.945312 -10.882812 7.769531 -12.140625 9.71875 -13.359375 C 11.675781 -14.578125 13.660156 -15.8125 15.671875 -17.0625 C 17.691406 -18.320312 19.640625 -19.632812 21.515625 -21 C 23.398438 -22.375 25.117188 -23.863281 26.671875 -25.46875 C 28.222656 -27.070312 29.507812 -28.84375 30.53125 -30.78125 C 29.695312 -30.28125 28.773438 -30.007812 27.765625 -29.96875 C 26.765625 -29.925781 25.703125 -29.992188 24.578125 -30.171875 C 23.460938 -30.359375 22.285156 -30.539062 21.046875 -30.71875 C 19.816406 -30.894531 18.566406 -30.976562 17.296875 -30.96875 C 16.023438 -30.957031 14.753906 -30.726562 13.484375 -30.28125 C 12.296875 -29.863281 11.429688 -29.300781 10.890625 -28.59375 C 10.347656 -27.894531 10.085938 -27.175781 10.109375 -26.4375 C 10.140625 -25.707031 10.425781 -25.09375 10.96875 -24.59375 C 11.507812 -24.101562 12.25 -23.84375 13.1875 -23.8125 C 13.769531 -23.8125 14.375 -23.925781 15 -24.15625 C 15.625 -24.394531 16.210938 -24.78125 16.765625 -25.3125 C 17.117188 -25.632812 17.320312 -25.550781 17.375 -25.0625 C 17.519531 -23.625 17.445312 -22.40625 17.15625 -21.40625 C 16.863281 -20.40625 16.460938 -19.59375 15.953125 -18.96875 C 15.441406 -18.351562 14.910156 -17.894531 14.359375 -17.59375 C 13.804688 -17.289062 13.320312 -17.109375 12.90625 -17.046875 C 10.9375 -16.773438 9.429688 -17.175781 8.390625 -18.25 C 7.359375 -19.332031 6.800781 -20.742188 6.71875 -22.484375 C 6.632812 -24.335938 6.957031 -26.191406 7.6875 -28.046875 C 8.425781 -29.898438 9.457031 -31.570312 10.78125 -33.0625 C 12.113281 -34.550781 13.609375 -35.6875 15.265625 -36.46875 C 16.535156 -37.070312 17.882812 -37.5 19.3125 -37.75 C 20.738281 -38 22.222656 -38.125 23.765625 -38.125 C 25.984375 -38.125 27.957031 -38.070312 29.6875 -37.96875 C 31.414062 -37.875 32.925781 -37.867188 34.21875 -37.953125 C 35.519531 -38.035156 36.65625 -38.367188 37.625 -38.953125 C 37.988281 -39.148438 38.332031 -39.269531 38.65625 -39.3125 C 38.988281 -39.351562 39.128906 -39.082031 39.078125 -38.5 C 38.941406 -36.175781 38.289062 -33.9375 37.125 -31.78125 C 35.96875 -29.625 34.515625 -27.617188 32.765625 -25.765625 C 31.023438 -23.910156 29.203125 -22.234375 27.296875 -20.734375 C 25.191406 -19.109375 22.988281 -17.601562 20.6875 -16.21875 C 18.394531 -14.832031 16.132812 -13.398438 13.90625 -11.921875 C 11.6875 -10.441406 9.609375 -8.75 7.671875 -6.84375 C 8.671875 -7.5625 9.59375 -8.078125 10.4375 -8.390625 C 11.28125 -8.710938 12.144531 -8.90625 13.03125 -8.96875 C 13.914062 -9.039062 14.890625 -9.039062 15.953125 -8.96875 C 17.015625 -8.90625 18.25 -8.820312 19.65625 -8.71875 C 21.457031 -8.570312 22.9375 -8.5625 24.09375 -8.6875 C 25.257812 -8.8125 26.269531 -9.191406 27.125 -9.828125 C 27.40625 -10.046875 27.628906 -10.113281 27.796875 -10.03125 C 27.960938 -9.957031 28.03125 -9.765625 28 -9.453125 C 27.96875 -8.347656 27.722656 -7.148438 27.265625 -5.859375 C 26.816406 -4.578125 26.175781 -3.4375 25.34375 -2.4375 C 24.519531 -1.445312 23.507812 -0.800781 22.3125 -0.5 C 20.9375 -0.132812 19.367188 0.00390625 17.609375 -0.078125 C 15.847656 -0.160156 14.019531 -0.332031 12.125 -0.59375 C 10.238281 -0.863281 8.394531 -1.101562 6.59375 -1.3125 C 4.800781 -1.519531 3.15625 -1.5625 1.65625 -1.4375 C 0.164062 -1.3125 -1.035156 -0.898438 -1.953125 -0.203125 Z M -1.953125 -0.203125 "/></g></g></g><g fill="#e54246" fill-opacity="1"><g transform="translate(43.633855, 135.79489)"><g/></g></g><g fill="#e54246" fill-opacity="1"><g transform="translate(55.868505, 135.79489)"><g><path d="M 23.9375 -31.03125 C 22.113281 -31.144531 20.265625 -31.128906 18.390625 -30.984375 C 16.523438 -30.847656 14.828125 -30.570312 13.296875 -30.15625 C 11.765625 -29.738281 10.566406 -29.1875 9.703125 -28.5 C 8.566406 -27.5625 7.984375 -26.628906 7.953125 -25.703125 C 7.929688 -24.773438 8.429688 -24.160156 9.453125 -23.859375 C 10.316406 -23.609375 11.25 -23.613281 12.25 -23.875 C 13.257812 -24.132812 14.085938 -24.570312 14.734375 -25.1875 C 14.890625 -25.351562 15.023438 -25.414062 15.140625 -25.375 C 15.253906 -25.332031 15.320312 -25.195312 15.34375 -24.96875 C 15.488281 -23.53125 15.414062 -22.3125 15.125 -21.3125 C 14.832031 -20.320312 14.429688 -19.515625 13.921875 -18.890625 C 13.410156 -18.273438 12.875 -17.8125 12.3125 -17.5 C 11.757812 -17.195312 11.289062 -17.019531 10.90625 -16.96875 C 9.164062 -16.71875 7.785156 -17.003906 6.765625 -17.828125 C 5.742188 -18.660156 5.097656 -19.816406 4.828125 -21.296875 C 4.566406 -22.773438 4.671875 -24.390625 5.140625 -26.140625 C 5.722656 -28.234375 6.570312 -29.984375 7.6875 -31.390625 C 8.8125 -32.804688 10.117188 -33.957031 11.609375 -34.84375 C 13.109375 -35.726562 14.726562 -36.398438 16.46875 -36.859375 C 18.207031 -37.316406 19.984375 -37.628906 21.796875 -37.796875 C 23.609375 -37.960938 25.382812 -38.046875 27.125 -38.046875 C 28.457031 -38.046875 29.890625 -37.929688 31.421875 -37.703125 C 32.960938 -37.484375 34.4375 -37.109375 35.84375 -36.578125 C 37.25 -36.054688 38.460938 -35.359375 39.484375 -34.484375 C 40.515625 -33.617188 41.203125 -32.539062 41.546875 -31.25 C 41.890625 -29.96875 41.742188 -28.441406 41.109375 -26.671875 C 40.441406 -24.878906 39.179688 -23.222656 37.328125 -21.703125 C 35.484375 -20.179688 33.160156 -18.976562 30.359375 -18.09375 C 32.023438 -17.59375 33.226562 -16.878906 33.96875 -15.953125 C 34.71875 -15.023438 35.117188 -14.007812 35.171875 -12.90625 C 35.234375 -11.800781 35.039062 -10.691406 34.59375 -9.578125 C 33.820312 -7.535156 32.769531 -5.796875 31.4375 -4.359375 C 30.113281 -2.921875 28.675781 -1.832031 27.125 -1.09375 C 25.582031 -0.363281 24.050781 0 22.53125 0 C 20.8125 0 19.296875 -0.515625 17.984375 -1.546875 C 16.671875 -2.585938 15.863281 -4.144531 15.5625 -6.21875 C 14.28125 -4.445312 12.78125 -2.96875 11.0625 -1.78125 C 9.351562 -0.59375 7.378906 0 5.140625 0 C 3.703125 0 2.539062 -0.328125 1.65625 -0.984375 C 0.769531 -1.648438 0.128906 -2.53125 -0.265625 -3.625 C -0.671875 -4.71875 -0.875 -5.898438 -0.875 -7.171875 C -0.875 -8.441406 -0.710938 -9.695312 -0.390625 -10.9375 C -0.078125 -12.1875 0.367188 -13.285156 0.953125 -14.234375 C 1.171875 -14.566406 1.40625 -14.765625 1.65625 -14.828125 C 1.90625 -14.898438 2.085938 -14.703125 2.203125 -14.234375 C 2.472656 -12.796875 3.078125 -11.773438 4.015625 -11.171875 C 4.960938 -10.578125 6.03125 -10.28125 7.21875 -10.28125 C 8.957031 -10.28125 10.5 -10.679688 11.84375 -11.484375 C 13.1875 -12.285156 14.34375 -13.34375 15.3125 -14.65625 C 16.28125 -15.976562 17.066406 -17.367188 17.671875 -18.828125 C 18.273438 -20.242188 18.847656 -21.675781 19.390625 -23.125 C 19.929688 -24.582031 20.5625 -25.988281 21.28125 -27.34375 C 22 -28.695312 22.882812 -29.925781 23.9375 -31.03125 Z M 17.71875 -9.703125 C 18.90625 -9.097656 20.289062 -8.757812 21.875 -8.6875 C 23.46875 -8.625 24.957031 -8.8125 26.34375 -9.25 C 27.613281 -9.664062 28.671875 -10.265625 29.515625 -11.046875 C 30.359375 -11.835938 30.894531 -12.648438 31.125 -13.484375 C 31.363281 -14.316406 31.253906 -15.019531 30.796875 -15.59375 C 30.347656 -16.175781 29.472656 -16.46875 28.171875 -16.46875 C 26.867188 -16.46875 25.082031 -16.023438 22.8125 -15.140625 C 22.539062 -15.023438 22.328125 -15.03125 22.171875 -15.15625 C 22.015625 -15.28125 21.992188 -15.5 22.109375 -15.8125 L 23.3125 -18.921875 C 23.425781 -19.253906 23.675781 -19.363281 24.0625 -19.25 C 24.945312 -19.050781 25.820312 -19.035156 26.6875 -19.203125 C 27.5625 -19.367188 28.398438 -19.632812 29.203125 -20 C 30.941406 -20.800781 32.257812 -21.691406 33.15625 -22.671875 C 34.0625 -23.648438 34.523438 -24.628906 34.546875 -25.609375 C 34.578125 -26.597656 34.164062 -27.503906 33.3125 -28.328125 C 32.457031 -29.160156 31.144531 -29.8125 29.375 -30.28125 C 28.019531 -29.695312 26.867188 -28.832031 25.921875 -27.6875 C 24.984375 -26.539062 24.195312 -25.257812 23.5625 -23.84375 C 22.925781 -22.4375 22.359375 -21.03125 21.859375 -19.625 C 21.335938 -18.125 20.738281 -16.507812 20.0625 -14.78125 C 19.382812 -13.0625 18.601562 -11.367188 17.71875 -9.703125 Z M 17.71875 -9.703125 "/></g></g></g><g fill="#000000" fill-opacity="1"><g transform="translate(93.858134, 135.79489)"><g><path d="M 3.03125 -16.84375 C 2.914062 -16.726562 2.8125 -16.691406 2.71875 -16.734375 C 2.625 -16.773438 2.578125 -16.878906 2.578125 -17.046875 C 2.628906 -17.929688 2.875 -18.753906 3.3125 -19.515625 C 3.757812 -20.273438 4.453125 -20.78125 5.390625 -21.03125 C 6.109375 -21.226562 6.972656 -21.304688 7.984375 -21.265625 C 8.992188 -21.222656 10.054688 -21.125 11.171875 -20.96875 C 12.296875 -20.8125 13.390625 -20.6875 14.453125 -20.59375 C 15.515625 -20.5 16.484375 -20.476562 17.359375 -20.53125 C 18.234375 -20.59375 18.921875 -20.800781 19.421875 -21.15625 C 19.554688 -21.289062 19.671875 -21.332031 19.765625 -21.28125 C 19.859375 -21.226562 19.894531 -21.117188 19.875 -20.953125 C 19.84375 -20.066406 19.601562 -19.242188 19.15625 -18.484375 C 18.71875 -17.722656 18.03125 -17.234375 17.09375 -17.015625 C 16.34375 -16.816406 15.460938 -16.738281 14.453125 -16.78125 C 13.441406 -16.820312 12.375 -16.910156 11.25 -17.046875 C 10.132812 -17.179688 9.046875 -17.304688 7.984375 -17.421875 C 6.921875 -17.535156 5.953125 -17.554688 5.078125 -17.484375 C 4.210938 -17.410156 3.53125 -17.195312 3.03125 -16.84375 Z M 3.03125 -16.84375 "/></g></g></g><g fill="#e54246" fill-opacity="1"><g transform="translate(113.931252, 135.79489)"><g><path d="M 24.1875 -29.53125 C 24.957031 -31.050781 25.242188 -32.289062 25.046875 -33.25 C 24.859375 -34.207031 24.347656 -34.898438 23.515625 -35.328125 C 22.691406 -35.753906 21.710938 -35.914062 20.578125 -35.8125 C 19.441406 -35.71875 18.332031 -35.367188 17.25 -34.765625 C 15.789062 -33.910156 14.554688 -32.710938 13.546875 -31.171875 C 12.535156 -29.640625 11.847656 -28.03125 11.484375 -26.34375 C 11.179688 -24.851562 10.863281 -23.304688 10.53125 -21.703125 C 10.207031 -20.097656 9.742188 -18.519531 9.140625 -16.96875 C 8.546875 -15.414062 7.707031 -13.972656 6.625 -12.640625 C 5.550781 -11.316406 4.101562 -10.171875 2.28125 -9.203125 C 3.363281 -9.535156 4.566406 -9.707031 5.890625 -9.71875 C 7.210938 -9.738281 8.59375 -9.671875 10.03125 -9.515625 C 11.476562 -9.367188 12.882812 -9.203125 14.25 -9.015625 C 15.613281 -8.835938 16.878906 -8.707031 18.046875 -8.625 C 19.835938 -8.488281 21.351562 -8.535156 22.59375 -8.765625 C 23.84375 -9.003906 24.898438 -9.507812 25.765625 -10.28125 C 26.015625 -10.507812 26.234375 -10.582031 26.421875 -10.5 C 26.617188 -10.414062 26.703125 -10.222656 26.671875 -9.921875 C 26.566406 -6.867188 25.648438 -4.453125 23.921875 -2.671875 C 22.191406 -0.890625 19.847656 0 16.890625 0 C 15.523438 0 14.019531 -0.0859375 12.375 -0.265625 C 10.738281 -0.453125 9.054688 -0.644531 7.328125 -0.84375 C 5.597656 -1.050781 3.9375 -1.203125 2.34375 -1.296875 C 0.75 -1.398438 -0.703125 -1.390625 -2.015625 -1.265625 C -3.328125 -1.140625 -4.382812 -0.828125 -5.1875 -0.328125 C -5.625 -0.0546875 -5.953125 0.0078125 -6.171875 -0.125 C -6.398438 -0.257812 -6.289062 -0.601562 -5.84375 -1.15625 C -4.570312 -2.820312 -3.457031 -4.609375 -2.5 -6.515625 C -1.550781 -8.421875 -0.707031 -10.382812 0.03125 -12.40625 C 0.78125 -14.425781 1.503906 -16.40625 2.203125 -18.34375 C 2.859375 -20.21875 3.582031 -22.09375 4.375 -23.96875 C 5.164062 -25.851562 6.070312 -27.640625 7.09375 -29.328125 C 8.113281 -31.015625 9.300781 -32.515625 10.65625 -33.828125 C 12.007812 -35.140625 13.578125 -36.171875 15.359375 -36.921875 C 17.148438 -37.671875 19.207031 -38.046875 21.53125 -38.046875 C 23.851562 -38.046875 25.71875 -37.523438 27.125 -36.484375 C 28.539062 -35.453125 29.460938 -34.0625 29.890625 -32.3125 C 30.316406 -30.570312 30.171875 -28.640625 29.453125 -26.515625 C 28.648438 -24.078125 27.335938 -22.078125 25.515625 -20.515625 C 23.691406 -18.953125 21.476562 -18.144531 18.875 -18.09375 C 17.15625 -18.0625 15.828125 -18.476562 14.890625 -19.34375 C 13.953125 -20.21875 13.410156 -21.332031 13.265625 -22.6875 C 13.128906 -24.039062 13.367188 -25.4375 13.984375 -26.875 C 14.085938 -27.15625 14.226562 -27.300781 14.40625 -27.3125 C 14.59375 -27.332031 14.753906 -27.226562 14.890625 -27 C 15.335938 -26.34375 15.921875 -25.910156 16.640625 -25.703125 C 17.359375 -25.492188 18.085938 -25.441406 18.828125 -25.546875 C 19.960938 -25.710938 21.003906 -26.160156 21.953125 -26.890625 C 22.910156 -27.628906 23.65625 -28.507812 24.1875 -29.53125 Z M 24.1875 -29.53125 "/></g></g></g><g fill="#000000" fill-opacity="1"><g transform="translate(140.1839, 135.79489)"><g><path d="M 3.03125 -16.84375 C 2.914062 -16.726562 2.8125 -16.691406 2.71875 -16.734375 C 2.625 -16.773438 2.578125 -16.878906 2.578125 -17.046875 C 2.628906 -17.929688 2.875 -18.753906 3.3125 -19.515625 C 3.757812 -20.273438 4.453125 -20.78125 5.390625 -21.03125 C 6.109375 -21.226562 6.972656 -21.304688 7.984375 -21.265625 C 8.992188 -21.222656 10.054688 -21.125 11.171875 -20.96875 C 12.296875 -20.8125 13.390625 -20.6875 14.453125 -20.59375 C 15.515625 -20.5 16.484375 -20.476562 17.359375 -20.53125 C 18.234375 -20.59375 18.921875 -20.800781 19.421875 -21.15625 C 19.554688 -21.289062 19.671875 -21.332031 19.765625 -21.28125 C 19.859375 -21.226562 19.894531 -21.117188 19.875 -20.953125 C 19.84375 -20.066406 19.601562 -19.242188 19.15625 -18.484375 C 18.71875 -17.722656 18.03125 -17.234375 17.09375 -17.015625 C 16.34375 -16.816406 15.460938 -16.738281 14.453125 -16.78125 C 13.441406 -16.820312 12.375 -16.910156 11.25 -17.046875 C 10.132812 -17.179688 9.046875 -17.304688 7.984375 -17.421875 C 6.921875 -17.535156 5.953125 -17.554688 5.078125 -17.484375 C 4.210938 -17.410156 3.53125 -17.195312 3.03125 -16.84375 Z M 3.03125 -16.84375 "/></g></g></g><g fill="#e54246" fill-opacity="1"><g transform="translate(160.257019, 135.79489)"><g><path d="M -1.953125 -0.203125 C -2.222656 -0.015625 -2.46875 0.0351562 -2.6875 -0.046875 C -2.914062 -0.128906 -2.972656 -0.363281 -2.859375 -0.75 C -2.273438 -2.457031 -1.367188 -4.035156 -0.140625 -5.484375 C 1.085938 -6.941406 2.550781 -8.3125 4.25 -9.59375 C 5.945312 -10.882812 7.769531 -12.140625 9.71875 -13.359375 C 11.675781 -14.578125 13.660156 -15.8125 15.671875 -17.0625 C 17.691406 -18.320312 19.640625 -19.632812 21.515625 -21 C 23.398438 -22.375 25.117188 -23.863281 26.671875 -25.46875 C 28.222656 -27.070312 29.507812 -28.84375 30.53125 -30.78125 C 29.695312 -30.28125 28.773438 -30.007812 27.765625 -29.96875 C 26.765625 -29.925781 25.703125 -29.992188 24.578125 -30.171875 C 23.460938 -30.359375 22.285156 -30.539062 21.046875 -30.71875 C 19.816406 -30.894531 18.566406 -30.976562 17.296875 -30.96875 C 16.023438 -30.957031 14.753906 -30.726562 13.484375 -30.28125 C 12.296875 -29.863281 11.429688 -29.300781 10.890625 -28.59375 C 10.347656 -27.894531 10.085938 -27.175781 10.109375 -26.4375 C 10.140625 -25.707031 10.425781 -25.09375 10.96875 -24.59375 C 11.507812 -24.101562 12.25 -23.84375 13.1875 -23.8125 C 13.769531 -23.8125 14.375 -23.925781 15 -24.15625 C 15.625 -24.394531 16.210938 -24.78125 16.765625 -25.3125 C 17.117188 -25.632812 17.320312 -25.550781 17.375 -25.0625 C 17.519531 -23.625 17.445312 -22.40625 17.15625 -21.40625 C 16.863281 -20.40625 16.460938 -19.59375 15.953125 -18.96875 C 15.441406 -18.351562 14.910156 -17.894531 14.359375 -17.59375 C 13.804688 -17.289062 13.320312 -17.109375 12.90625 -17.046875 C 10.9375 -16.773438 9.429688 -17.175781 8.390625 -18.25 C 7.359375 -19.332031 6.800781 -20.742188 6.71875 -22.484375 C 6.632812 -24.335938 6.957031 -26.191406 7.6875 -28.046875 C 8.425781 -29.898438 9.457031 -31.570312 10.78125 -33.0625 C 12.113281 -34.550781 13.609375 -35.6875 15.265625 -36.46875 C 16.535156 -37.070312 17.882812 -37.5 19.3125 -37.75 C 20.738281 -38 22.222656 -38.125 23.765625 -38.125 C 25.984375 -38.125 27.957031 -38.070312 29.6875 -37.96875 C 31.414062 -37.875 32.925781 -37.867188 34.21875 -37.953125 C 35.519531 -38.035156 36.65625 -38.367188 37.625 -38.953125 C 37.988281 -39.148438 38.332031 -39.269531 38.65625 -39.3125 C 38.988281 -39.351562 39.128906 -39.082031 39.078125 -38.5 C 38.941406 -36.175781 38.289062 -33.9375 37.125 -31.78125 C 35.96875 -29.625 34.515625 -27.617188 32.765625 -25.765625 C 31.023438 -23.910156 29.203125 -22.234375 27.296875 -20.734375 C 25.191406 -19.109375 22.988281 -17.601562 20.6875 -16.21875 C 18.394531 -14.832031 16.132812 -13.398438 13.90625 -11.921875 C 11.6875 -10.441406 9.609375 -8.75 7.671875 -6.84375 C 8.671875 -7.5625 9.59375 -8.078125 10.4375 -8.390625 C 11.28125 -8.710938 12.144531 -8.90625 13.03125 -8.96875 C 13.914062 -9.039062 14.890625 -9.039062 15.953125 -8.96875 C 17.015625 -8.90625 18.25 -8.820312 19.65625 -8.71875 C 21.457031 -8.570312 22.9375 -8.5625 24.09375 -8.6875 C 25.257812 -8.8125 26.269531 -9.191406 27.125 -9.828125 C 27.40625 -10.046875 27.628906 -10.113281 27.796875 -10.03125 C 27.960938 -9.957031 28.03125 -9.765625 28 -9.453125 C 27.96875 -8.347656 27.722656 -7.148438 27.265625 -5.859375 C 26.816406 -4.578125 26.175781 -3.4375 25.34375 -2.4375 C 24.519531 -1.445312 23.507812 -0.800781 22.3125 -0.5 C 20.9375 -0.132812 19.367188 0.00390625 17.609375 -0.078125 C 15.847656 -0.160156 14.019531 -0.332031 12.125 -0.59375 C 10.238281 -0.863281 8.394531 -1.101562 6.59375 -1.3125 C 4.800781 -1.519531 3.15625 -1.5625 1.65625 -1.4375 C 0.164062 -1.3125 -1.035156 -0.898438 -1.953125 -0.203125 Z M -1.953125 -0.203125 "/></g></g></g></svg>